<?xml version="1.0" encoding="UTF-8" standalone="no"?>
<!-- Created with Inkscape (http://www.inkscape.org/) -->

<svg
   version="1.1"
   id="svg2"
   width="814.66669"
   height="895.4267"
   viewBox="0 0 814.66669 895.4267"
   sodipodi:docname="little lucky cat.eps"
   xmlns:inkscape="http://www.inkscape.org/namespaces/inkscape"
   xmlns:sodipodi="http://sodipodi.sourceforge.net/DTD/sodipodi-0.dtd"
   xmlns="http://www.w3.org/2000/svg"
   xmlns:svg="http://www.w3.org/2000/svg">
  <defs
     id="defs6" />
  <sodipodi:namedview
     id="namedview4"
     pagecolor="#ffffff"
     bordercolor="#000000"
     borderopacity="0.25"
     inkscape:showpageshadow="2"
     inkscape:pageopacity="0.0"
     inkscape:pagecheckerboard="0"
     inkscape:deskcolor="#d1d1d1" />
  <g
     id="g8"
     inkscape:groupmode="layer"
     inkscape:label="ink_ext_XXXXXX"
     transform="matrix(1.3333333,0,0,-1.3333333,0,895.42667)">
    <g
       id="g10"
       transform="scale(0.1)">
      <path
         d="M 5162.99,5162.26 C 4623.22,5702.03 3878.35,6035.22 3055,6035.22 2231.65,6035.22 1486.78,5702.03 947.008,5162.26 407.977,4623.22 74.043,3877.62 74.043,3054.26 74.043,2231.65 407.977,1486.04 947.008,947.012 1486.78,407.238 2231.65,74.0391 3055,74.0391 c 823.35,0 1568.22,333.1989 2107.99,872.9729 539.04,539.028 872.97,1284.638 872.97,2107.248 0,823.36 -333.93,1568.96 -872.97,2108 z m -2107.99,947 c 843.35,0 1607.47,-342.08 2159.82,-894.43 C 5767.92,4661.73 6110,3898.35 6110,3054.26 6110,2210.92 5767.92,1447.54 5214.82,894.441 4662.47,341.34 3898.35,0 3055,0 2211.65,0 1447.53,341.34 895.176,894.441 342.078,1447.54 0,2210.92 0,3054.26 0,3898.35 342.078,4661.73 895.176,5214.83 1447.53,5767.18 2211.65,6109.26 3055,6109.26 v 0"
         style="fill:#0f0f0f;fill-opacity:1;fill-rule:nonzero;stroke:none"
         id="path12" />
      <path
         d="m 3055,309.5 c 1511.95,0 2744.76,1232.81 2744.76,2744.76 0,1511.95 -1232.81,2745.5 -2744.76,2745.5 C 1543.05,5799.76 309.496,4566.21 309.496,3054.26 309.496,1542.31 1543.05,309.5 3055,309.5 v 0"
         style="fill:#0f0f0f;fill-opacity:1;fill-rule:evenodd;stroke:none"
         id="path14" />
      <path
         d="m 4205.62,4575.1 h 0.74 c 0,0 0,0 -0.74,0 z M 2586.31,6592.76 c -51.09,28.13 -105.88,48.87 -158.45,50.35 -4.44,0 -10.37,0 -16.29,0 -5.18,-0.74 -10.37,-1.48 -15.55,-1.48 -28.88,-4.44 -57.01,-22.95 -83.67,-55.53 -30.36,-36.28 -57.75,-89.6 -81.44,-159.2 -13.33,-38.5 -24.44,-76.26 -32.58,-108.84 -8.15,-32.58 -13.33,-59.23 -16.29,-74.78 l -2.22,-13.33 -11.85,-8.88 c -11.85,-8.15 -30.36,-22.96 -53.31,-45.17 -15.55,-15.55 -33.32,-34.8 -51.83,-57.76 -18.51,-22.95 -35.54,-47.38 -51.83,-72.55 -16.29,-25.92 -31.1,-52.57 -44.43,-81.45 -17.03,-34.8 -32.58,-71.82 -45.16,-110.33 -13.33,-38.5 -23.7,-79.22 -32.58,-120.68 -13.33,-64.42 -19.99,-128.1 -19.99,-191.04 0,-62.19 5.92,-124.39 19.25,-185.84 2.22,-9.63 3.7,-17.03 5.18,-23.7 1.48,-4.44 3.7,-12.58 6.66,-22.95 l 4.45,-17.03 -11.11,-14.07 c -8.14,-11.1 -16.29,-23.69 -22.95,-37.02 -6.67,-12.59 -11.85,-26.65 -17.03,-42.94 -11.11,-37.03 -17.03,-74.05 -16.29,-111.07 0,-37.02 5.92,-74.04 17.77,-111.06 9.62,-29.62 22.95,-58.5 39.24,-87.37 16.29,-28.14 37.02,-57.02 60.72,-85.15 24.43,-28.88 48.86,-53.31 72.56,-74.04 33.32,-29.62 63.67,-51.83 82.93,-65.16 l 20.73,-14.07 -74.05,-312.46 5.93,-24.43 -20.73,-14.07 c -25.92,-17.77 -51.83,-50.35 -69.6,-92.55 -15.55,-37.03 -24.44,-79.97 -20.74,-127.36 2.97,-39.24 11.11,-71.82 25.18,-96.99 13.33,-22.96 31.1,-40.73 54.79,-53.31 42.95,-22.96 98.48,-25.18 147.35,-26.66 0,0 1.48,0 2.22,0 10.36,-0.74 20.73,-0.74 28.87,-1.48 23.7,-1.48 59.98,-2.22 105.88,-2.96 39.99,0 97,-0.74 168.08,-0.74 80.71,0 154.01,0.74 209.54,1.48 62.2,0.74 114.03,1.48 145.87,2.96 l 17.03,0.74 h 22.21 c 25.91,-0.74 50.35,-0.74 74.04,-1.48 12.59,0 38.5,0 68.86,0 35.54,0 17.03,0 33.32,0 21.47,0 42.2,0 63.68,0 16.29,0 -2.22,0 33.32,0 30.35,0 56.27,0 68.86,0 23.69,0.74 48.12,0.74 74.04,1.48 h 22.21 l 17.03,-0.74 c 31.84,-1.48 83.67,-2.22 145.86,-2.96 55.54,-0.74 128.84,-1.48 209.55,-1.48 71.08,0 128.09,0.74 168.07,0.74 45.91,0.74 82.19,1.48 105.88,2.96 8.15,0.74 18.51,0.74 28.88,1.48 h 2.22 v 0 c 48.87,1.48 104.4,3.7 147.35,26.66 23.69,12.58 41.46,30.35 54.79,53.31 14.07,25.17 22.21,57.75 25.17,96.99 3.7,47.39 -5.18,90.33 -20.73,127.36 -17.77,42.2 -43.68,74.78 -69.6,92.55 l -20.73,14.07 5.92,24.43 -30.36,128.09 19.26,14.07 c 17.77,13.33 34.8,27.4 51.08,42.21 15.55,14.81 30.36,30.35 44.43,47.38 2.22,2.97 2.22,3.71 4.44,7.41 25.92,50.35 30.36,102.92 22.96,151.79 -9.63,63.67 -40.73,119.95 -73.31,156.97 l -22.95,26.65 25.92,23.7 c 1.48,2.22 26.65,32.57 59.97,87.37 17.03,28.87 36.28,64.41 55.53,106.62 17.03,35.54 31.1,71.82 43.69,108.84 12.58,37.02 23.69,74.78 31.84,112.54 11.1,47.39 18.51,94.78 22.95,142.17 3.7,48.12 5.18,96.25 2.96,143.64 -2.22,37.02 -6.66,74.04 -14.81,111.06 -8.14,37.76 -19.25,75.53 -34.06,113.29 -11.1,29.62 -24.43,59.97 -39.98,90.33 -15.55,30.36 -32.58,59.98 -51.09,89.59 -19.99,31.1 -40.72,59.24 -58.49,82.19 -28.14,36.28 -51.09,61.45 -62.2,73.3 l -8.88,8.89 -1.49,11.85 c -1.48,12.58 -4.44,34.79 -8.88,62.93 -5.18,28.88 -11.85,62.19 -21.47,95.51 -16.29,59.98 -36.28,108.85 -59.24,145.13 -21.47,32.58 -45.16,55.53 -70.34,66.64 -7.4,2.96 -14.81,5.18 -22.95,6.66 -8.89,2.22 -17.77,2.96 -26.66,2.96 -29.61,0.74 -64.41,-5.92 -103.66,-19.99 -40.72,-14.81 -85.89,-37.02 -134.75,-67.38 -25.92,-16.29 -49.61,-31.84 -68.86,-45.9 -19.99,-14.07 -35.54,-25.92 -45.91,-34.06 l -13.33,-11.11 -17.03,4.44 c -32.58,7.41 -105.88,22.95 -186.58,34.8 -49.61,7.41 -100.7,13.33 -145.87,14.81 h -8.88 c -60.72,0.74 -136.98,-5.92 -205.84,-13.33 -67.38,-7.4 -128.1,-16.29 -157.71,-20.73 l -17.03,-2.22 -13.33,12.59 c -28.14,27.39 -102.18,95.51 -189.55,142.9 z m -156.23,122.91 c 65.16,-1.48 131.06,-26.65 191.03,-59.23 83.67,-45.91 155.49,-108.1 192.51,-142.17 31.84,4.45 83.67,11.85 142.9,18.52 70.34,7.4 149.57,14.06 213.99,13.32 l 10.36,-0.74 c 48.87,-0.74 102.92,-6.66 154.01,-14.81 71.08,-10.36 136.98,-23.69 175.48,-32.58 9.63,7.41 21.47,16.29 34.8,25.92 19.99,14.07 45.17,31.1 72.56,48.13 54.06,33.32 103.66,57.75 148.83,74.04 47.39,17.03 91.07,25.18 129.57,24.43 14.07,0 27.4,-1.48 39.99,-4.44 12.58,-2.96 24.43,-6.66 36.28,-11.85 39.98,-17.02 74.04,-48.12 102.92,-93.29 27.39,-42.94 50.35,-97.74 68.86,-165.12 10.36,-37.75 17.03,-73.3 22.21,-102.17 3.7,-22.22 6.66,-41.47 8.89,-55.54 13.32,-14.8 34.8,-38.5 58.49,-68.86 19.25,-24.43 40.72,-54.05 62.19,-88.1 20.74,-31.84 39.25,-63.68 55.54,-96.26 16.29,-31.84 30.35,-64.42 42.94,-96.99 15.55,-41.47 28.14,-82.93 37.02,-123.66 8.89,-41.46 14.07,-82.19 15.55,-122.91 2.96,-51.09 1.48,-102.18 -2.96,-153.27 -4.44,-51.09 -12.59,-102.18 -23.69,-152.52 -9.63,-40.73 -20.74,-80.71 -34.06,-119.95 -13.33,-39.25 -28.88,-77.75 -46.65,-115.51 -19.99,-44.43 -40.72,-82.19 -59.23,-113.29 -20.74,-34.8 -39.25,-60.71 -51.09,-77 32.58,-44.43 60.71,-104.4 71.08,-169.56 9.62,-61.45 3.7,-128.09 -28.14,-192.51 -1.48,-2.96 -2.96,-6.66 -4.44,-10.36 -2.96,-5.19 -6.67,-9.63 -10.37,-14.07 v 0 l -2.22,-1.48 c -15.55,-19.25 -31.84,-36.28 -49.61,-52.57 -11.84,-11.11 -24.43,-22.22 -37.76,-32.58 l 19.99,-82.19 v 0 c 0,-2.22 0.74,-5.18 1.48,-7.4 30.36,-25.92 59.24,-65.16 79.23,-111.81 v -0.74 c 19.25,-45.91 30.36,-100.7 25.91,-159.93 -3.7,-50.35 -15.54,-91.81 -34.06,-126.61 -19.99,-36.29 -48.12,-63.68 -84.4,-82.93 -57.76,-30.36 -122.92,-32.58 -179.93,-34.8 h -1.48 v 0 c -8.88,-0.74 -17.03,-0.74 -27.39,-1.48 -22.96,-0.74 -59.98,-2.22 -108.85,-2.96 -53.31,-0.75 -111.06,-0.75 -168.81,-0.75 -65.9,0 -139.95,0.75 -210.29,1.49 -63.67,0.74 -116.98,1.48 -148.08,2.96 l -15.55,0.74 h -19.25 c -25.18,-0.74 -50.35,-0.74 -74.78,-0.74 -36.29,-0.74 -57.02,-0.74 -69.6,-0.74 -14.07,0 5.18,0 -33.32,0 H 3086.84 3055 c -38.5,0 -19.25,0 -33.32,0 -12.59,0 -33.32,0 -68.86,0.74 -25.17,0 -50.35,0 -74.78,0.74 h -19.99 l -15.55,-0.74 c -31.1,-1.48 -84.41,-2.22 -148.09,-2.96 -70.34,-0.74 -144.38,-1.49 -210.28,-1.49 -57.75,0 -115.51,0 -168.82,0.75 -48.86,0.74 -85.89,2.22 -108.84,2.96 -10.36,0.74 -18.51,0.74 -27.39,1.48 0,-0.74 -0.75,0 -1.49,0 -57.01,2.22 -122.17,4.44 -179.92,34.8 -36.28,19.25 -64.42,46.64 -84.41,82.93 -18.51,34.8 -30.36,76.26 -34.06,126.61 -4.44,59.23 6.67,114.02 25.92,159.93 v 0.74 c 19.99,46.65 48.87,85.89 79.22,111.07 0.74,2.96 0.74,5.92 1.48,8.14 l 62.94,265.07 c -19.25,14.07 -43.68,32.58 -70.34,56.27 -25.17,22.96 -52.57,50.35 -78.49,80.71 -26.65,31.1 -49.6,63.68 -68.86,97 -19.25,33.32 -34.05,66.64 -45.16,100.7 -14.07,43.68 -20.73,88.11 -21.47,132.53 0,45.17 5.92,89.59 19.25,133.28 5.92,19.25 13.33,37.02 21.47,54.05 6.66,11.85 12.59,22.95 19.99,33.32 l -2.22,8.14 c -2.22,10.37 -4.44,18.51 -5.92,25.18 -14.07,65.9 -20.74,133.28 -20.74,201.39 0,68.12 7.41,136.98 21.48,205.84 9.62,44.43 20.73,87.37 34.8,128.84 14.07,41.46 30.35,81.44 48.12,119.21 14.81,30.35 31.1,59.97 48.87,88.11 17.77,28.13 37.02,54.05 57.02,79.22 19.99,25.18 39.98,46.65 57.75,63.68 19.25,19.25 36.28,33.32 49.61,43.69 2.96,16.28 8.14,39.24 14.07,64.41 8.88,34.06 19.99,74.79 34.06,115.51 27.39,77.74 58.49,138.46 94.03,181.4 38.5,47.39 82.19,74.04 130.31,81.45 6.67,0.74 14.07,1.48 21.48,1.48 6.66,0.74 14.07,0.74 22.21,0.74 v 0"
         style="fill:#0f0f0f;fill-opacity:1;fill-rule:nonzero;stroke:none"
         id="path16" />
      <path
         d="m 2199.07,4817.22 c -3.71,0.74 -7.41,1.48 -10.37,3.7 -4.44,3.7 -111.06,88.11 -203.62,243.6 -54.79,91.81 -94.03,188.81 -114.76,288.02 -27.4,125.14 -26.66,254.71 0,385.03 39.98,191.77 118.47,319.12 177.7,392.42 51.83,64.42 97,98.48 114.77,110.33 4.44,25.91 19.99,108.1 50.34,193.25 48.87,139.94 109.59,216.2 179.93,226.57 11.11,1.48 22.95,2.22 34.8,1.48 156.97,-3.7 331.71,-169.56 366.51,-204.36 45.17,6.67 243.6,36.28 374.66,34.8 2.96,0 6.66,0 9.62,0 128.09,-2.96 302.84,-42.2 344.3,-51.83 39.98,31.84 231.75,179.93 370.95,176.97 20.74,-0.75 39.99,-5.19 57.02,-11.85 131.79,-57.76 167.33,-344.3 172.52,-391.69 15.54,-15.55 70.34,-74.04 127.35,-162.15 60.71,-94.78 134.76,-243.6 142.9,-413.16 10.37,-220.65 -50.35,-402.79 -102.92,-516.82 -57.01,-123.65 -115.5,-194.73 -117.73,-197.69 -3.7,-3.7 -8.14,-5.93 -13.32,-6.67 l -1959.91,-99.95 h -0.74 v 0"
         style="fill:#ffffff;fill-opacity:1;fill-rule:nonzero;stroke:none"
         id="path18" />
      <path
         d="m 2429.34,6679.39 v 0 c -13.33,0 -25.92,-0.74 -37.76,-2.22 -77.75,-11.11 -143.64,-91.07 -195.47,-238.42 -27.4,-79.23 -43.69,-156.23 -49.61,-188.07 -21.48,-16.29 -64.42,-51.09 -111.81,-110.32 -38.5,-47.39 -72.56,-101.44 -101.44,-159.93 -34.8,-73.3 -62.19,-154.01 -79.96,-239.9 -27.4,-133.28 -28.14,-265.07 -0.74,-391.69 22.21,-102.18 61.45,-200.65 116.98,-293.21 94.78,-158.45 203.62,-245.08 208.06,-248.78 5.93,-4.44 12.59,-6.66 20,-6.66 0.74,0 1.48,0 2.96,0 l 1959.17,99.95 c 10.36,0 19.99,5.19 26.65,13.33 2.22,2.96 62.94,75.53 120.69,201.4 34.06,74.04 59.98,150.3 77.75,228.79 22.21,97.74 31.09,196.95 26.65,296.17 -3.7,77.01 -20.73,156.23 -51.09,234.72 -23.69,62.93 -55.53,125.87 -94.77,186.58 -53.31,83.67 -105.14,139.94 -125.13,161.42 -2.97,25.91 -11.85,92.55 -31.84,163.63 -34.8,127.36 -85.15,206.58 -150.31,234.71 -18.51,8.15 -39.98,12.59 -62.94,13.33 -68.11,1.48 -155.49,-29.61 -258.4,-93.29 -53.32,-32.58 -96.26,-65.16 -117.73,-82.19 -53.31,12.59 -216.95,47.39 -339.12,51.09 -3.7,0 -6.66,0 -10.36,0 -125.14,1.48 -310.98,-25.17 -368.74,-34.06 -46.64,45.91 -216.2,199.92 -371.69,203.62 z m -2.96,-34.8 c 167.33,-4.44 361.33,-205.84 361.33,-205.84 0,0 235.45,37.76 380.58,35.54 2.96,0 5.92,0 8.88,0 142.9,-3.7 349.48,-53.31 349.48,-53.31 0,0 218.43,182.15 366.51,178.44 17.77,-0.74 34.8,-3.7 50.35,-10.36 133.28,-57.76 162.9,-383.54 162.9,-383.54 0,0 254.7,-247.31 269.51,-568.65 19.99,-419.82 -216.2,-701.93 -216.2,-701.93 l -1959.91,-99.95 c 0,0 -428.71,338.37 -312.46,899.62 76.26,365.03 290.98,496.08 290.98,496.08 0,0 64.42,390.2 216.21,411.68 11.11,1.48 21.47,2.22 31.84,2.22 v 0"
         style="fill:#0f0f0f;fill-opacity:1;fill-rule:nonzero;stroke:none"
         id="path20" />
      <path
         d="m 2243.49,6232.17 c 0,0 62.94,317.65 161.42,342.82 121.43,31.84 328,-189.55 328,-189.55 l -489.42,-153.27"
         style="fill:#e3e2e1;fill-opacity:1;fill-rule:nonzero;stroke:none"
         id="path22" />
      <path
         d="m 2296.06,6286.96 c 0,0 45.91,233.98 119.21,253.23 89.59,22.95 242.12,-140.68 242.12,-140.68 l -361.33,-112.55"
         style="fill:#c02f37;fill-opacity:1;fill-rule:nonzero;stroke:none"
         id="path24" />
      <path
         d="m 4017.55,6187.75 c 0,0 -20.73,319.86 -115.5,350.22 -116.99,37.02 -351.7,-173.26 -351.7,-173.26 l 467.2,-176.96"
         style="fill:#e3e2e1;fill-opacity:1;fill-rule:nonzero;stroke:none"
         id="path26" />
      <path
         d="m 3394.12,5794.58 c 48.12,43.69 96.99,71.08 196.95,82.19 76.26,8.88 226.57,-25.18 226.57,-25.18 0,0 -122.17,8.89 -215.46,-17.77 -68.86,-19.25 -102.18,-57.75 -120.69,-76.26 -16.29,-16.29 -56.28,-68.12 -96.26,-51.83 -33.32,12.59 -18.51,64.41 8.89,88.85 v 0"
         style="fill:#0f0f0f;fill-opacity:1;fill-rule:nonzero;stroke:none"
         id="path28" />
      <path
         d="m 2847.68,5807.91 c -42.94,45.9 -87.37,75.52 -185.85,91.81 -74.78,12.59 -228.79,-13.33 -228.79,-13.33 0,0 122.91,2.22 212.5,-28.87 66.64,-22.22 94.04,-62.94 110.33,-82.19 14.07,-17.03 46.64,-70.34 88.85,-56.28 34.8,11.11 26.65,62.94 2.96,88.86 v 0"
         style="fill:#0f0f0f;fill-opacity:1;fill-rule:nonzero;stroke:none"
         id="path30" />
      <path
         d="m 3061.66,5655.38 c 4.45,17.03 33.32,28.88 65.9,28.14 31.84,-1.49 62.94,-14.81 62.2,-33.32 -1.48,-22.96 -42.21,-76.27 -42.21,-76.27 l -54.05,1.48 c 0,0 -37.76,58.5 -31.84,79.97 v 0"
         style="fill:#8d3451;fill-opacity:1;fill-rule:nonzero;stroke:none"
         id="path32" />
      <path
         d="m 2669.24,5602.07 c 0,0 4.44,-28.88 19.99,-54.79 15.55,-25.92 39.24,-43.69 60.71,-55.53 34.8,-18.52 84.41,-20.74 110.33,-20 25.91,0.74 80.7,7.41 97.73,32.58 17.03,25.18 67.38,99.22 99.96,98.48 31.84,-0.74 126.61,-3.7 142.9,-3.7 22.96,0 47.39,-24.44 68.86,-57.76 21.48,-34.06 42.21,-65.15 56.28,-70.34 21.47,-7.4 97.73,-8.88 130.31,-2.22 31.1,5.93 62.94,26.66 81.45,51.09 14.07,18.51 39.98,59.24 39.98,59.24 0,0 -16.29,-52.57 -29.62,-70.35 -17.77,-22.95 -28.87,-42.2 -83.66,-57.75 -20.74,-5.92 -105.14,-11.85 -140.69,-1.48 -26.65,8.15 -54.05,36.28 -72.56,66.64 -19.25,29.62 -50.35,56.27 -74.04,57.01 -31.1,0 -111.06,2.96 -117.73,-2.22 -5.92,-5.18 -40.72,-32.58 -58.49,-52.57 -11.85,-13.33 -29.62,-39.98 -50.35,-52.57 -20.73,-12.59 -54.79,-14.81 -99.96,-14.07 -58.49,1.48 -100.7,14.07 -128.83,38.5 -26.66,22.22 -33.32,30.36 -45.91,59.98 -7.4,17.77 -6.66,51.83 -6.66,51.83 v 0"
         style="fill:#8d3451;fill-opacity:1;fill-rule:nonzero;stroke:none"
         id="path34" />
      <path
         d="m 3975.35,6244.76 c 0,0 -14.81,236.2 -85.15,258.41 -85.89,27.39 -259.89,-127.36 -259.89,-127.36 l 345.04,-131.05"
         style="fill:#c02f37;fill-opacity:1;fill-rule:nonzero;stroke:none"
         id="path36" />
      <path
         d="m 2484.13,3879.1 c -128.83,0 -228.79,1.48 -274.7,3.7 -9.62,0 -19.25,0.74 -29.61,0.74 -103.66,3.7 -232.5,8.88 -246.57,194.73 -8.88,119.21 57.02,217.69 112.55,245.08 -0.74,0.74 -1.48,1.48 -2.96,2.22 -3.71,4.45 -5.93,10.37 -4.45,17.03 l 71.83,299.88 c -28.14,17.77 -102.18,69.6 -169.56,148.82 -111.07,131.06 -147.35,273.96 -105.14,413.16 42.2,139.94 167.33,189.55 270.25,189.55 7.41,0 14.81,0 22.22,-0.74 96.99,-8.15 156.97,-59.98 156.97,-136.24 0.74,-65.16 -23.7,-111.8 -76.27,-145.86 v 0 c -9.62,-6.67 -19.25,-11.85 -29.61,-16.29 3.7,-0.74 5.92,-0.74 6.66,-0.74 6.66,-0.74 12.59,-5.19 14.81,-11.85 0.74,-0.74 25.91,-73.3 50.35,-105.88 34.06,-45.17 75.52,-72.56 85.89,-76.27 12.58,2.23 62.93,20 111.06,37.77 110.32,39.24 276.92,99.21 387.98,121.43 128.84,25.17 241.38,36.28 376.14,36.28 96.26,0 208.8,-5.93 342.82,-17.77 231.01,-20 557.54,-136.98 570.87,-142.17 2.22,-0.74 4.44,-1.48 5.92,-3.7 5.92,-4.44 108.1,-106.62 107.36,-263.59 -0.74,-19.99 -61.45,-155.49 -132.53,-205.84 1.48,-35.54 31.83,-100.7 31.09,-141.42 25.18,-25.17 106.62,-99.22 106.62,-242.86 -14.06,-185.85 -157.71,-191.03 -261.37,-194.73 -10.36,0 -19.99,-0.74 -29.61,-0.74 -45.91,-2.22 -45.17,-3.7 -174,-3.7 -456.11,0 -838.91,0 -1295.01,0 v 0"
         style="fill:#ffffff;fill-opacity:1;fill-rule:nonzero;stroke:none"
         id="path38" />
      <path
         d="m 2105.77,5376.24 c 7.41,0 14.07,0 20.73,-0.74 88.86,-6.67 140.69,-52.57 141.43,-118.47 0,-55.53 -18.51,-98.48 -68.86,-131.06 -2.22,-0.74 -25.18,-18.51 -59.98,-25.91 -52.57,-11.11 -113.28,-7.4 -135.5,-10.37 0,0 42.95,-8.14 83.67,-8.88 46.65,-0.74 97,-3.7 97,-3.7 0,0 26.65,-76.27 52.57,-111.07 37.76,-50.35 88.11,-83.67 99.22,-83.67 25.17,0 330.23,125.88 503.49,159.94 115.5,22.21 225.83,35.54 372.43,35.54 94.77,0 205.1,-5.19 341.34,-17.03 231.75,-19.99 566.42,-141.42 566.42,-141.42 97,-121.43 148.83,-321.35 -6.66,-417.61 77.74,0.75 86.63,29.62 118.47,47.39 93.29,161.42 -11.85,345.78 -88.11,396.13 -3.7,2.96 -7.41,5.18 -11.85,6.66 -13.33,5.19 -341.34,123.66 -575.31,143.65 -134.76,11.84 -247.3,17.77 -344.3,17.77 -136.24,0 -249.52,-11.11 -379.1,-37.02 -113.28,-22.22 -279.88,-82.19 -390.94,-122.17 -42.21,-14.81 -85.89,-31.1 -102.92,-35.55 -14.07,7.41 -47.39,32.58 -74.79,68.86 -18.51,24.44 -39.98,80.71 -46.64,100.7 -0.74,2.22 -1.48,4.45 -2.96,5.93 1.48,0.74 2.22,2.22 3.7,2.96 v 0 c 57.75,37.02 84.41,88.11 84.41,159.93 0,43.68 -17.03,80.71 -49.61,108.1 -30.36,25.92 -73.3,41.47 -123.65,45.17 -8.15,0.74 -15.55,1.48 -23.7,1.48 v 0 -35.54 35.54 c -109.58,0 -242.12,-53.31 -287.28,-202.14 -24.44,-81.44 -23.7,-163.63 2.22,-244.34 19.99,-63.67 56.27,-125.87 106.62,-185.1 61.46,-72.57 128.83,-122.17 162.89,-145.13 l -68.86,-288.76 c -1.48,-5.93 -1.48,-11.11 0,-17.03 -57.01,-39.25 -114.76,-135.5 -105.88,-252.49 6.67,-88.85 39.25,-148.09 99.22,-179.92 50.35,-26.66 111.06,-28.88 164.38,-30.36 10.36,-0.74 19.99,-0.74 29.61,-1.48 45.91,-2.22 146.61,-3.7 275.44,-3.7 147.35,0 293.95,1.48 356.89,4.44 13.32,0.74 33.32,0.74 59.23,0.74 28.88,0 63.68,0 99.96,-0.74 45.9,0 98.47,-0.74 151.79,-0.74 60.71,0 134.01,0.74 205.09,3.7 v 34.8 c -66.63,-2.96 -136.97,-3.7 -205.09,-3.7 -97,0 -188.07,1.48 -251.75,1.48 -24.43,0 -45.17,0 -60.71,-0.74 -65.9,-2.22 -215.47,-4.44 -355.41,-4.44 -114.77,0 -223.61,1.48 -273.96,3.7 -110.32,5.92 -245.82,-7.41 -259.89,179.92 -8.88,124.39 66.64,219.17 114.03,232.5 34.06,8.88 79.22,22.95 131.05,22.95 5.93,0 11.85,0 17.03,0 111.07,-6.67 200.66,-31.84 200.66,-31.84 0,0 -68.86,30.36 -145.86,42.2 -31.84,4.45 -62.94,6.67 -92.56,6.67 -43.68,0 -83.67,-5.18 -119.21,-14.07 l 74.79,312.46 c 0,0 -376.88,222.87 -278.4,548.66 42.94,139.94 169.55,176.96 253.96,176.96 v 0"
         style="fill:#0f0f0f;fill-opacity:1;fill-rule:nonzero;stroke:none"
         id="path40" />
      <path
         d="m 2211.65,5233.34 c 8.89,8.88 0.74,22.95 -9.62,32.58 -14.07,13.32 -47.39,21.47 -65.9,22.95 -48.13,5.18 -98.48,-11.85 -98.48,-11.85 0,0 48.87,-0.74 79.97,-12.59 31.84,-11.84 36.28,-19.99 49.61,-26.65 16.29,-8.89 33.32,-17.77 44.42,-4.44 v 0"
         style="fill:#0f0f0f;fill-opacity:1;fill-rule:nonzero;stroke:none"
         id="path42" />
      <path
         d="m 2160.56,5169.66 c 8.89,8.88 0.75,22.95 -9.62,32.58 -14.07,13.33 -47.39,21.47 -65.9,22.95 -48.13,5.18 -98.48,-11.85 -98.48,-11.85 0,0 48.87,-0.74 79.97,-12.58 31.84,-11.85 37.02,-19.99 49.61,-26.66 16.29,-8.88 33.32,-17.77 44.42,-4.44 v 0"
         style="fill:#0f0f0f;fill-opacity:1;fill-rule:nonzero;stroke:none"
         id="path44" />
      <path
         d="m 2867.67,6209.22 c 2.96,-46.65 -24.43,-74.04 -53.31,-73.3 -28.88,0.74 -47.39,28.87 -51.83,75.52 -1.48,24.44 -2.22,51.83 3.7,98.48 11.11,84.41 21.48,128.83 21.48,128.83 17.03,3.7 46.64,5.93 46.64,5.93 14.07,2.21 47.39,5.92 47.39,5.92 0,0 -17.03,-103.66 -17.77,-133.28 -1.48,-48.13 1.48,-81.44 3.7,-108.1 v 0"
         style="fill:#c02f37;fill-opacity:1;fill-rule:nonzero;stroke:none"
         id="path46" />
      <path
         d="m 3417.07,6195.15 c -8.89,-45.9 14.81,-74.78 43.68,-75.52 28.88,-0.74 51.09,26.65 61.46,73.3 5.18,23.7 9.62,51.09 9.62,98.48 0,83.66 -4.44,128.83 -4.44,128.83 -16.29,4.44 -45.16,10.37 -45.16,10.37 -13.33,2.96 -46.65,10.36 -46.65,10.36 0,0 2.96,-108.1 0,-137.72 -5.18,-48.86 -12.59,-81.45 -18.51,-108.1 v 0"
         style="fill:#c02f37;fill-opacity:1;fill-rule:nonzero;stroke:none"
         id="path48" />
      <path
         d="m 3200.86,6250.68 c -3.7,-47.38 -29.61,-85.14 -58.49,-84.41 -28.88,0.75 -49.61,39.25 -46.65,86.63 l 11.11,162.9 c 1.48,22.95 12.59,57.75 12.59,57.75 0,0 28.87,1.48 43.68,1.48 l 45.17,-2.22 c 0,0 4.44,-36.28 2.96,-59.97 l -10.37,-162.16"
         style="fill:#c02f37;fill-opacity:1;fill-rule:nonzero;stroke:none"
         id="path50" />
      <path
         d="m 2511.53,5610.21 c -5.93,-92.55 -111.07,-164.37 -233.98,-161.41 -122.91,2.96 -217.68,79.97 -211.76,172.52 6.66,91.81 111.06,164.38 233.97,161.41 122.92,-2.96 217.69,-80.7 211.77,-172.52 v 0"
         style="fill:#f0aeba;fill-opacity:1;fill-rule:nonzero;stroke:none"
         id="path52" />
      <path
         d="m 2443.41,5662.78 c 9.62,8.89 4.44,25.18 -7.41,32.58 -18.51,11.85 -55.53,17.77 -74.04,19.99 -48.13,6.67 -222.13,4.45 -222.13,4.45 0,0 151.05,-17.03 185.85,-25.18 32.58,-7.4 58.49,-19.99 74.04,-25.91 16.29,-7.41 31.84,-18.51 43.69,-5.93 v 0"
         style="fill:#c02f37;fill-opacity:1;fill-rule:nonzero;stroke:none"
         id="path54" />
      <path
         d="m 2433.04,5611.69 c 6.67,11.11 -1.48,25.92 -14.07,31.1 -20.73,7.41 -100.69,7.41 -119.95,7.41 -57.75,-0.74 -165.11,-17.77 -165.11,-17.77 0,0 168.82,-5.93 201.4,-12.59 33.31,-6.66 36.28,-7.41 52.57,-10.37 17.77,-3.7 34.8,-11.84 45.16,2.22 v 0"
         style="fill:#c02f37;fill-opacity:1;fill-rule:nonzero;stroke:none"
         id="path56" />
      <path
         d="m 2436,5532.47 c 5.93,11.1 -3.7,25.17 -17.03,28.88 -20.73,5.92 -82.18,2.96 -120.69,-5.19 -62.93,-13.33 -181.4,-50.35 -181.4,-50.35 0,0 127.35,22.96 185.11,22.96 34.06,0 72.56,-1.48 88.85,-3.71 18.51,-1.48 37.02,-8.14 45.16,7.41 v 0"
         style="fill:#c02f37;fill-opacity:1;fill-rule:nonzero;stroke:none"
         id="path58" />
      <path
         d="m 3708.06,5579.86 c -5.93,-91.82 88.85,-168.82 211.76,-171.78 122.91,-3.71 227.31,68.86 233.97,161.41 5.93,91.81 -88.85,168.82 -211.76,171.78 -122.91,3.7 -228.05,-68.86 -233.97,-161.41 v 0"
         style="fill:#f0aeba;fill-opacity:1;fill-rule:nonzero;stroke:none"
         id="path60" />
      <path
         d="m 1996.19,4115.29 c 0,-86.63 94.03,-156.23 208.8,-156.23 115.51,0 208.8,69.6 208.8,156.23 0,86.63 -93.29,156.97 -208.8,156.97 -114.77,0 -208.8,-70.34 -208.8,-156.97 v 0"
         style="fill:#f0aeba;fill-opacity:1;fill-rule:nonzero;stroke:none"
         id="path62" />
      <path
         d="m 3782.84,5629.46 c -8.15,9.63 -0.74,25.92 11.85,32.58 19.99,10.37 57.75,14.81 77,16.29 48.13,3.7 221.39,-6.66 221.39,-6.66 0,0 -152.53,-9.63 -188.07,-16.29 -34.06,-5.92 -61.46,-17.03 -77,-22.21 -18.52,-6.67 -34.8,-17.03 -45.17,-3.71 v 0"
         style="fill:#c02f37;fill-opacity:1;fill-rule:nonzero;stroke:none"
         id="path64" />
      <path
         d="m 3787.28,5578.38 c -5.92,10.36 3.7,25.17 17.77,29.61 21.47,6.67 101.44,2.96 119.95,1.48 57.75,-3.7 162.15,-25.91 162.15,-25.91 0,0 -168.07,2.22 -202.13,-2.22 -34.06,-5.19 -37.02,-5.93 -53.31,-8.15 -18.51,-2.22 -37.02,-9.62 -44.43,5.19 v 0"
         style="fill:#c02f37;fill-opacity:1;fill-rule:nonzero;stroke:none"
         id="path66" />
      <path
         d="m 3773.21,5499.15 c -4.44,11.11 6.67,25.17 20.74,28.14 21.47,4.44 82.18,-1.49 119.2,-11.11 61.46,-16.29 174.74,-59.23 174.74,-59.23 0,0 -123.65,28.87 -181.4,31.83 -34.06,1.48 -73.3,1.48 -89.59,1.48 -18.51,-1.48 -37.76,-6.66 -43.69,8.89 v 0"
         style="fill:#c02f37;fill-opacity:1;fill-rule:nonzero;stroke:none"
         id="path68" />
      <path
         d="m 4069.38,4942.35 c 0,0 -693.03,-289.51 -960.33,-289.51 -372.43,0 -809.29,223.61 -809.29,223.61 0,0 395.39,253.97 795.22,253.97 399.83,0 974.4,-188.07 974.4,-188.07 v 0"
         style="fill:#c02f37;fill-opacity:1;fill-rule:nonzero;stroke:none"
         id="path70" />
      <path
         d="m 4069.38,4942.35 c 0,0 -693.03,-289.51 -960.33,-289.51 -372.43,0 -809.29,223.61 -809.29,223.61 0,0 395.39,253.97 795.22,253.97 399.83,0 974.4,-188.07 974.4,-188.07 z"
         style="fill:none;stroke:#0f0f0f;stroke-width:261.371;stroke-linecap:butt;stroke-linejoin:round;stroke-miterlimit:10;stroke-dasharray:none;stroke-opacity:1"
         id="path72" />
      <path
         d="m 3813.94,4870.53 c -6.67,14.81 -10.37,31.1 -10.37,48.12 0,31.84 12.59,60.72 33.32,82.19 114.03,-25.17 188.81,-46.64 188.81,-46.64 0,0 -87.37,-37.03 -211.76,-83.67 v 0"
         style="fill:#c02f37;fill-opacity:1;fill-rule:nonzero;stroke:none"
         id="path74" />
      <path
         d="m 3813.94,4870.53 c -6.67,14.81 -10.37,31.1 -10.37,48.12 0,31.84 12.59,60.72 33.32,82.19"
         style="fill:none;stroke:#ffffff;stroke-width:52.5703;stroke-linecap:butt;stroke-linejoin:round;stroke-miterlimit:10;stroke-dasharray:none;stroke-opacity:1"
         id="path76" />
      <path
         d="m 3852.44,4885.34 c -5.18,9.62 -8.15,21.47 -8.15,33.31 0,31.1 18.52,57.76 45.17,70.35 39.24,-9.63 71.82,-17.77 94.78,-23.7 5.92,-6.66 9.62,-14.81 12.58,-22.95 -30.35,-12.59 -81.44,-32.58 -144.38,-57.01 v 0"
         style="fill:#c02f37;fill-opacity:1;fill-rule:nonzero;stroke:none"
         id="path78" />
      <path
         d="m 3984.24,4965.3 c 5.92,-6.66 9.62,-14.81 12.58,-22.95 m -144.38,-57.01 c -5.18,9.62 -8.15,21.47 -8.15,33.31 0,31.1 18.52,57.76 45.17,70.35"
         style="fill:none;stroke:#ffffff;stroke-width:52.5703;stroke-linecap:butt;stroke-linejoin:round;stroke-miterlimit:10;stroke-dasharray:none;stroke-opacity:1"
         id="path80" />
      <path
         d="m 3888.72,4899.4 c -3.7,5.19 -5.18,11.85 -5.18,19.25 0,21.48 17.03,38.51 38.5,38.51 18.51,0 34.06,-12.59 38.5,-29.62 -20.73,-8.14 -44.42,-17.77 -71.82,-28.14 v 0"
         style="fill:#c02f37;fill-opacity:1;fill-rule:nonzero;stroke:none"
         id="path82" />
      <path
         d="m 3888.72,4899.4 c -3.7,5.19 -5.18,11.85 -5.18,19.25 0,21.48 17.03,38.51 38.5,38.51 18.51,0 34.06,-12.59 38.5,-29.62"
         style="fill:none;stroke:#ffffff;stroke-width:52.5703;stroke-linecap:butt;stroke-linejoin:round;stroke-miterlimit:10;stroke-dasharray:none;stroke-opacity:1"
         id="path84" />
      <path
         d="m 2607.04,4897.18 c 0,-46.64 -26.65,-86.63 -65.16,-105.88 -73.3,28.14 -131.05,54.79 -167.33,71.82 -2.96,10.37 -4.44,20.73 -4.44,31.84 41.46,15.55 117.72,42.95 213.98,71.82 14.81,-19.25 22.95,-43.68 22.95,-69.6 v 0"
         style="fill:#c02f37;fill-opacity:1;fill-rule:nonzero;stroke:none"
         id="path86" />
      <path
         d="m 2584.09,4966.78 c 14.81,-19.25 22.95,-43.68 22.95,-69.6 m -232.49,-34.06 c -2.96,10.37 -4.44,20.73 -4.44,31.84 m 236.93,2.22 c 0,-46.64 -26.65,-86.63 -65.16,-105.88"
         style="fill:none;stroke:#ffffff;stroke-width:52.5703;stroke-linecap:butt;stroke-linejoin:round;stroke-miterlimit:10;stroke-dasharray:none;stroke-opacity:1"
         id="path88" />
      <path
         d="m 2566.32,4897.18 c 0,-42.94 -34.8,-77.74 -77.75,-77.74 -42.94,0 -77.74,34.8 -77.74,77.74 0,4.45 0,8.89 0.74,13.33 34.06,11.85 78.48,26.66 130.31,42.95 14.81,-14.07 24.44,-34.06 24.44,-56.28 v 0"
         style="fill:#c02f37;fill-opacity:1;fill-rule:nonzero;stroke:none"
         id="path90" />
      <path
         d="m 2541.88,4953.46 c 14.81,-14.07 24.44,-34.06 24.44,-56.28 m 0,0 c 0,-42.94 -34.8,-77.74 -77.75,-77.74 -42.94,0 -77.74,34.8 -77.74,77.74 0,4.45 0,8.89 0.74,13.33"
         style="fill:none;stroke:#ffffff;stroke-width:52.5703;stroke-linecap:butt;stroke-linejoin:round;stroke-miterlimit:10;stroke-dasharray:none;stroke-opacity:1"
         id="path92" />
      <path
         d="m 2527.08,4897.18 c 0,-21.47 -17.03,-38.5 -38.51,-38.5 -21.47,0 -39.24,17.03 -39.24,38.5 0,13.33 6.66,25.18 17.03,31.84 6.66,2.22 13.33,4.44 20.73,7.41 0.74,0 0.74,0 1.48,0 21.48,0 38.51,-17.78 38.51,-39.25 v 0"
         style="fill:#c02f37;fill-opacity:1;fill-rule:nonzero;stroke:none"
         id="path94" />
      <path
         d="m 2487.09,4936.43 c 0.74,0 0.74,0 1.48,0 21.48,0 38.51,-17.78 38.51,-39.25 m 0,0 c 0,-21.47 -17.03,-38.5 -38.51,-38.5 -21.47,0 -39.24,17.03 -39.24,38.5 0,13.33 6.66,25.18 17.03,31.84"
         style="fill:none;stroke:#ffffff;stroke-width:52.5703;stroke-linecap:butt;stroke-linejoin:round;stroke-miterlimit:10;stroke-dasharray:none;stroke-opacity:1"
         id="path96" />
      <path
         d="m 2785.48,4956.42 c 0,-65.16 -53.31,-118.47 -118.46,-118.47 -65.16,0 -118.47,52.57 -118.47,117.73 64.42,19.99 139.94,41.46 220.65,61.45 10.36,-17.77 16.28,-38.5 16.28,-60.71 v 0"
         style="fill:#c02f37;fill-opacity:1;fill-rule:nonzero;stroke:none"
         id="path98" />
      <path
         d="m 2769.2,5017.13 c 10.36,-17.77 16.28,-38.5 16.28,-60.71 m 0,0 c 0,-65.16 -53.31,-118.47 -118.46,-118.47 -65.16,0 -118.47,52.57 -118.47,117.73"
         style="fill:none;stroke:#ffffff;stroke-width:52.5703;stroke-linecap:butt;stroke-linejoin:round;stroke-miterlimit:10;stroke-dasharray:none;stroke-opacity:1"
         id="path100" />
      <path
         d="m 2744.76,4956.42 c 0,-42.95 -34.8,-77.75 -77.74,-77.75 -42.95,0 -77.75,34.8 -77.75,77.75 0,4.44 0,8.14 0.74,11.84 42.21,12.59 88.11,25.92 136.98,37.77 11.11,-13.33 17.77,-30.36 17.77,-49.61 v 0"
         style="fill:#c02f37;fill-opacity:1;fill-rule:nonzero;stroke:none"
         id="path102" />
      <path
         d="m 2726.99,5006.03 c 11.11,-13.33 17.77,-30.36 17.77,-49.61 m 0,0 c 0,-42.95 -34.8,-77.75 -77.74,-77.75 -42.95,0 -77.75,34.8 -77.75,77.75 0,4.44 0,8.14 0.74,11.84"
         style="fill:none;stroke:#ffffff;stroke-width:52.5703;stroke-linecap:butt;stroke-linejoin:round;stroke-miterlimit:10;stroke-dasharray:none;stroke-opacity:1"
         id="path104" />
      <path
         d="m 2705.52,4956.42 c 0,-21.48 -17.03,-38.51 -38.5,-38.51 -21.48,0 -39.25,17.03 -39.25,38.51 0,10.36 3.71,19.25 10.37,25.91 13.33,3.7 26.66,7.41 39.98,11.11 16.29,-4.44 27.4,-19.25 27.4,-37.02 v 0"
         style="fill:#c02f37;fill-opacity:1;fill-rule:nonzero;stroke:none"
         id="path106" />
      <path
         d="m 2678.12,4993.44 c 16.29,-4.44 27.4,-19.25 27.4,-37.02 m 0,0 c 0,-21.48 -17.03,-38.51 -38.5,-38.51 -21.48,0 -39.25,17.03 -39.25,38.51 0,10.36 3.71,19.25 10.37,25.91"
         style="fill:none;stroke:#ffffff;stroke-width:52.5703;stroke-linecap:butt;stroke-linejoin:round;stroke-miterlimit:10;stroke-dasharray:none;stroke-opacity:1"
         id="path108" />
      <path
         d="m 2996.51,4989.74 c 0,-65.16 -53.31,-118.47 -118.47,-118.47 -65.16,0 -118.47,53.31 -118.47,118.47 0,8.88 0.74,17.03 2.22,25.17 68.86,17.03 140.68,31.84 213.24,42.94 13.33,-19.25 21.48,-42.2 21.48,-68.11 v 0"
         style="fill:#c02f37;fill-opacity:1;fill-rule:nonzero;stroke:none"
         id="path110" />
      <path
         d="m 2975.03,5057.85 c 13.33,-19.25 21.48,-42.2 21.48,-68.11 m 0,0 c 0,-65.16 -53.31,-118.47 -118.47,-118.47 -65.16,0 -118.47,53.31 -118.47,118.47 0,8.88 0.74,17.03 2.22,25.17"
         style="fill:none;stroke:#ffffff;stroke-width:52.5703;stroke-linecap:butt;stroke-linejoin:round;stroke-miterlimit:10;stroke-dasharray:none;stroke-opacity:1"
         id="path112" />
      <path
         d="m 2955.78,4989.74 c 0,-42.95 -34.8,-77.75 -77.74,-77.75 -42.95,0 -77.75,34.8 -77.75,77.75 0,13.32 2.97,25.91 8.89,36.28 38.5,8.88 78.48,17.03 118.47,24.43 17.03,-14.81 28.13,-36.28 28.13,-60.71 v 0"
         style="fill:#c02f37;fill-opacity:1;fill-rule:nonzero;stroke:none"
         id="path114" />
      <path
         d="m 2927.65,5050.45 c 17.03,-14.81 28.13,-36.28 28.13,-60.71 m 0,0 c 0,-42.95 -34.8,-77.75 -77.74,-77.75 -42.95,0 -77.75,34.8 -77.75,77.75 0,13.32 2.97,25.91 8.89,36.28"
         style="fill:none;stroke:#ffffff;stroke-width:52.5703;stroke-linecap:butt;stroke-linejoin:round;stroke-miterlimit:10;stroke-dasharray:none;stroke-opacity:1"
         id="path116" />
      <path
         d="m 2916.54,4989.74 c 0,-21.48 -17.03,-38.51 -38.5,-38.51 -21.47,0 -39.24,17.03 -39.24,38.51 0,21.47 17.77,39.24 39.24,39.24 21.47,0 38.5,-17.77 38.5,-39.24 v 0"
         style="fill:#c02f37;fill-opacity:1;fill-rule:nonzero;stroke:none"
         id="path118" />
      <path
         d="m 2916.54,4989.74 c 0,-21.48 -17.03,-38.51 -38.5,-38.51 -21.47,0 -39.24,17.03 -39.24,38.51 0,21.47 17.77,39.24 39.24,39.24 21.47,0 38.5,-17.77 38.5,-39.24"
         style="fill:none;stroke:#ffffff;stroke-width:52.5703;stroke-linecap:butt;stroke-linejoin:round;stroke-miterlimit:10;stroke-dasharray:none;stroke-opacity:1"
         id="path120" />
      <path
         d="m 3178.65,5005.28 c 0,-65.15 -52.57,-118.46 -118.47,-118.46 -65.15,0 -118.47,53.31 -118.47,118.46 0,17.78 3.71,34.06 10.37,48.87 68.12,11.11 136.24,19.25 202.88,22.96 14.81,-20 23.69,-44.43 23.69,-71.83 v 0"
         style="fill:#c02f37;fill-opacity:1;fill-rule:nonzero;stroke:none"
         id="path122" />
      <path
         d="m 3154.96,5077.11 c 14.81,-20 23.69,-44.43 23.69,-71.83 m 0,0 c 0,-65.15 -52.57,-118.46 -118.47,-118.46 -65.15,0 -118.47,53.31 -118.47,118.46 0,17.78 3.71,34.06 10.37,48.87"
         style="fill:none;stroke:#ffffff;stroke-width:52.5703;stroke-linecap:butt;stroke-linejoin:round;stroke-miterlimit:10;stroke-dasharray:none;stroke-opacity:1"
         id="path124" />
      <path
         d="m 3137.93,5005.28 c 0,-42.94 -34.8,-77.74 -77.75,-77.74 -42.94,0 -77.74,34.8 -77.74,77.74 0,22.96 9.62,42.95 25.17,57.76 30.36,3.7 61.46,7.4 91.07,10.36 23.7,-14.06 39.25,-39.24 39.25,-68.12 v 0"
         style="fill:#c02f37;fill-opacity:1;fill-rule:nonzero;stroke:none"
         id="path126" />
      <path
         d="m 3098.68,5073.4 c 23.7,-14.06 39.25,-39.24 39.25,-68.12 m 0,0 c 0,-42.94 -34.8,-77.74 -77.75,-77.74 -42.94,0 -77.74,34.8 -77.74,77.74 0,22.96 9.62,42.95 25.17,57.76"
         style="fill:none;stroke:#ffffff;stroke-width:52.5703;stroke-linecap:butt;stroke-linejoin:round;stroke-miterlimit:10;stroke-dasharray:none;stroke-opacity:1"
         id="path128" />
      <path
         d="m 3099.43,5005.28 c 0,-21.47 -17.77,-38.5 -39.25,-38.5 -21.47,0 -38.5,17.03 -38.5,38.5 0,21.48 17.03,39.25 38.5,39.25 21.48,0 39.25,-17.77 39.25,-39.25 v 0"
         style="fill:#c02f37;fill-opacity:1;fill-rule:nonzero;stroke:none"
         id="path130" />
      <path
         d="m 3099.43,5005.28 c 0,-21.47 -17.77,-38.5 -39.25,-38.5 -21.47,0 -38.5,17.03 -38.5,38.5 0,21.48 17.03,39.25 38.5,39.25 21.48,0 39.25,-17.77 39.25,-39.25"
         style="fill:none;stroke:#ffffff;stroke-width:52.5703;stroke-linecap:butt;stroke-linejoin:round;stroke-miterlimit:10;stroke-dasharray:none;stroke-opacity:1"
         id="path132" />
      <path
         d="m 3360.8,5011.95 c 0,-65.16 -52.57,-118.47 -118.47,-118.47 -65.16,0 -118.47,53.31 -118.47,118.47 0,23.69 6.66,45.9 18.51,64.42 13.33,0.74 25.92,0.74 38.5,1.48 53.31,1.48 108.1,0 162.16,-3.71 11.1,-17.77 17.77,-39.24 17.77,-62.19 v 0"
         style="fill:#c02f37;fill-opacity:1;fill-rule:nonzero;stroke:none"
         id="path134" />
      <path
         d="m 3343.03,5074.14 c 11.1,-17.77 17.77,-39.24 17.77,-62.19 m 0,0 c 0,-65.16 -52.57,-118.47 -118.47,-118.47 -65.16,0 -118.47,53.31 -118.47,118.47 0,23.69 6.66,45.9 18.51,64.42"
         style="fill:none;stroke:#ffffff;stroke-width:52.5703;stroke-linecap:butt;stroke-linejoin:round;stroke-miterlimit:10;stroke-dasharray:none;stroke-opacity:1"
         id="path136" />
      <path
         d="m 3320.07,5011.95 c 0,-42.95 -34.8,-77.75 -77.74,-77.75 -42.95,0 -77.75,34.8 -77.75,77.75 0,28.14 14.81,52.57 37.02,65.9 27.4,0.74 55.54,0 83.67,-0.74 20.73,-14.07 34.8,-37.77 34.8,-65.16 v 0"
         style="fill:#c02f37;fill-opacity:1;fill-rule:nonzero;stroke:none"
         id="path138" />
      <path
         d="m 3285.27,5077.11 c 20.73,-14.07 34.8,-37.77 34.8,-65.16 m 0,0 c 0,-42.95 -34.8,-77.75 -77.74,-77.75 -42.95,0 -77.75,34.8 -77.75,77.75 0,28.14 14.81,52.57 37.02,65.9"
         style="fill:none;stroke:#ffffff;stroke-width:52.5703;stroke-linecap:butt;stroke-linejoin:round;stroke-miterlimit:10;stroke-dasharray:none;stroke-opacity:1"
         id="path140" />
      <path
         d="m 3281.57,5011.95 c 0,-21.47 -17.77,-38.5 -39.24,-38.5 -21.47,0 -38.5,17.03 -38.5,38.5 0,21.47 17.03,39.24 38.5,39.24 21.47,0 39.24,-17.77 39.24,-39.24 v 0"
         style="fill:#c02f37;fill-opacity:1;fill-rule:nonzero;stroke:none"
         id="path142" />
      <path
         d="m 3281.57,5011.95 c 0,-21.47 -17.77,-38.5 -39.24,-38.5 -21.47,0 -38.5,17.03 -38.5,38.5 0,21.47 17.03,39.24 38.5,39.24 21.47,0 39.24,-17.77 39.24,-39.24"
         style="fill:none;stroke:#ffffff;stroke-width:52.5703;stroke-linecap:butt;stroke-linejoin:round;stroke-miterlimit:10;stroke-dasharray:none;stroke-opacity:1"
         id="path144" />
      <path
         d="m 3539.98,5015.65 c 0,-65.16 -52.57,-118.47 -118.47,-118.47 -65.16,0 -118.47,53.31 -118.47,118.47 0,22.21 5.93,42.2 16.29,59.98 71.82,-3.71 144.39,-11.11 213.99,-20 4.44,-12.58 6.66,-25.91 6.66,-39.98 v 0"
         style="fill:#c02f37;fill-opacity:1;fill-rule:nonzero;stroke:none"
         id="path146" />
      <path
         d="m 3533.32,5055.63 c 4.44,-12.58 6.66,-25.91 6.66,-39.98 m 0,0 c 0,-65.16 -52.57,-118.47 -118.47,-118.47 -65.16,0 -118.47,53.31 -118.47,118.47 0,22.21 5.93,42.2 16.29,59.98"
         style="fill:none;stroke:#ffffff;stroke-width:52.5703;stroke-linecap:butt;stroke-linejoin:round;stroke-miterlimit:10;stroke-dasharray:none;stroke-opacity:1"
         id="path148" />
      <path
         d="m 3499.26,5015.65 c 0,-42.94 -34.8,-77.74 -77.75,-77.74 -42.94,0 -77.74,34.8 -77.74,77.74 0,22.95 9.62,42.95 25.17,57.01 38.5,-2.96 77.75,-6.66 115.51,-11.1 9.62,-12.59 14.81,-28.88 14.81,-45.91 v 0"
         style="fill:#c02f37;fill-opacity:1;fill-rule:nonzero;stroke:none"
         id="path150" />
      <path
         d="m 3484.45,5061.56 c 9.62,-12.59 14.81,-28.88 14.81,-45.91 m 0,0 c 0,-42.94 -34.8,-77.74 -77.75,-77.74 -42.94,0 -77.74,34.8 -77.74,77.74 0,22.95 9.62,42.95 25.17,57.01"
         style="fill:none;stroke:#ffffff;stroke-width:52.5703;stroke-linecap:butt;stroke-linejoin:round;stroke-miterlimit:10;stroke-dasharray:none;stroke-opacity:1"
         id="path152" />
      <path
         d="m 3460.75,5015.65 c 0,-21.47 -17.77,-38.5 -39.24,-38.5 -21.47,0 -38.5,17.03 -38.5,38.5 0,21.47 17.03,39.24 38.5,39.24 21.47,0 39.24,-17.77 39.24,-39.24 v 0"
         style="fill:#c02f37;fill-opacity:1;fill-rule:nonzero;stroke:none"
         id="path154" />
      <path
         d="m 3460.75,5015.65 c 0,-21.47 -17.77,-38.5 -39.24,-38.5 -21.47,0 -38.5,17.03 -38.5,38.5 0,21.47 17.03,39.24 38.5,39.24 21.47,0 39.24,-17.77 39.24,-39.24"
         style="fill:none;stroke:#ffffff;stroke-width:52.5703;stroke-linecap:butt;stroke-linejoin:round;stroke-miterlimit:10;stroke-dasharray:none;stroke-opacity:1"
         id="path156" />
      <path
         d="m 3724.35,5005.28 c 0,-65.15 -52.57,-118.46 -118.47,-118.46 -65.16,0 -118.47,53.31 -118.47,118.46 0,20 4.44,38.51 13.33,54.06 78.48,-9.63 154.01,-22.22 222.12,-34.8 1.49,-5.93 1.49,-12.59 1.49,-19.26 v 0"
         style="fill:#c02f37;fill-opacity:1;fill-rule:nonzero;stroke:none"
         id="path158" />
      <path
         d="m 3722.86,5024.54 c 1.49,-5.93 1.49,-12.59 1.49,-19.26 m 0,0 c 0,-65.15 -52.57,-118.46 -118.47,-118.46 -65.16,0 -118.47,53.31 -118.47,118.46 0,20 4.44,38.51 13.33,54.06"
         style="fill:none;stroke:#ffffff;stroke-width:52.5703;stroke-linecap:butt;stroke-linejoin:round;stroke-miterlimit:10;stroke-dasharray:none;stroke-opacity:1"
         id="path160" />
      <path
         d="m 3683.62,5005.28 c 0,-42.94 -34.8,-77.74 -77.74,-77.74 -42.95,0 -77.75,34.8 -77.75,77.74 0,18.52 6.67,35.55 17.03,48.87 45.91,-6.66 91.07,-14.06 134.02,-21.47 2.96,-8.88 4.44,-17.77 4.44,-27.4 v 0"
         style="fill:#c02f37;fill-opacity:1;fill-rule:nonzero;stroke:none"
         id="path162" />
      <path
         d="m 3679.18,5032.68 c 2.96,-8.88 4.44,-17.77 4.44,-27.4 m 0,0 c 0,-42.94 -34.8,-77.74 -77.74,-77.74 -42.95,0 -77.75,34.8 -77.75,77.74 0,18.52 6.67,35.55 17.03,48.87"
         style="fill:none;stroke:#ffffff;stroke-width:52.5703;stroke-linecap:butt;stroke-linejoin:round;stroke-miterlimit:10;stroke-dasharray:none;stroke-opacity:1"
         id="path164" />
      <path
         d="m 3645.12,5005.28 c 0,-21.47 -17.77,-38.5 -39.24,-38.5 -21.48,0 -38.5,17.03 -38.5,38.5 0,21.48 17.02,39.25 38.5,39.25 0.74,0 2.22,0 2.96,0 2.22,-0.74 4.44,-0.74 6.66,-1.48 17.03,-3.71 29.62,-19.25 29.62,-37.77 v 0"
         style="fill:#c02f37;fill-opacity:1;fill-rule:nonzero;stroke:none"
         id="path166" />
      <path
         d="m 3615.5,5043.05 c 17.03,-3.71 29.62,-19.25 29.62,-37.77 m 0,0 c 0,-21.47 -17.77,-38.5 -39.24,-38.5 -21.48,0 -38.5,17.03 -38.5,38.5 0,21.48 17.02,39.25 38.5,39.25 0.74,0 2.22,0 2.96,0"
         style="fill:none;stroke:#ffffff;stroke-width:52.5703;stroke-linecap:butt;stroke-linejoin:round;stroke-miterlimit:10;stroke-dasharray:none;stroke-opacity:1"
         id="path168" />
      <path
         d="m 2921.72,4841.65 c 0,-65.9 -52.57,-118.47 -118.46,-118.47 -65.16,0 -118.47,52.57 -118.47,118.47 0,65.16 53.31,118.47 118.47,118.47 65.89,0 118.46,-53.31 118.46,-118.47 v 0"
         style="fill:#c02f37;fill-opacity:1;fill-rule:nonzero;stroke:none"
         id="path170" />
      <path
         d="m 2921.72,4841.65 c 0,-65.9 -52.57,-118.47 -118.46,-118.47 -65.16,0 -118.47,52.57 -118.47,118.47 0,65.16 53.31,118.47 118.47,118.47 65.89,0 118.46,-53.31 118.46,-118.47"
         style="fill:none;stroke:#ffffff;stroke-width:52.5703;stroke-linecap:butt;stroke-linejoin:round;stroke-miterlimit:10;stroke-dasharray:none;stroke-opacity:1"
         id="path172" />
      <path
         d="m 2881,4841.65 c 0,-42.94 -34.8,-77.74 -77.74,-77.74 -42.95,0 -77.75,34.8 -77.75,77.74 0,42.95 34.8,77.75 77.75,77.75 42.94,0 77.74,-34.8 77.74,-77.75 v 0"
         style="fill:#c02f37;fill-opacity:1;fill-rule:nonzero;stroke:none"
         id="path174" />
      <path
         d="m 2881,4841.65 c 0,-42.94 -34.8,-77.74 -77.74,-77.74 -42.95,0 -77.75,34.8 -77.75,77.74 0,42.95 34.8,77.75 77.75,77.75 42.94,0 77.74,-34.8 77.74,-77.75"
         style="fill:none;stroke:#ffffff;stroke-width:52.5703;stroke-linecap:butt;stroke-linejoin:round;stroke-miterlimit:10;stroke-dasharray:none;stroke-opacity:1"
         id="path176" />
      <path
         d="m 2842.5,4841.65 c 0,-21.47 -17.77,-39.24 -39.24,-39.24 -21.48,0 -38.51,17.77 -38.51,39.24 0,21.47 17.03,38.5 38.51,38.5 21.47,0 39.24,-17.03 39.24,-38.5 v 0"
         style="fill:#c02f37;fill-opacity:1;fill-rule:nonzero;stroke:none"
         id="path178" />
      <path
         d="m 2842.5,4841.65 c 0,-21.47 -17.77,-39.24 -39.24,-39.24 -21.48,0 -38.51,17.77 -38.51,39.24 0,21.47 17.03,38.5 38.51,38.5 21.47,0 39.24,-17.03 39.24,-38.5"
         style="fill:none;stroke:#ffffff;stroke-width:52.5703;stroke-linecap:butt;stroke-linejoin:round;stroke-miterlimit:10;stroke-dasharray:none;stroke-opacity:1"
         id="path180" />
      <path
         d="m 3109.05,4841.65 c 0,-65.9 -53.31,-118.47 -118.47,-118.47 -65.89,0 -118.47,52.57 -118.47,118.47 0,65.16 52.58,118.47 118.47,118.47 65.16,0 118.47,-53.31 118.47,-118.47 v 0"
         style="fill:#c02f37;fill-opacity:1;fill-rule:nonzero;stroke:none"
         id="path182" />
      <path
         d="m 3109.05,4841.65 c 0,-65.9 -53.31,-118.47 -118.47,-118.47 -65.89,0 -118.47,52.57 -118.47,118.47 0,65.16 52.58,118.47 118.47,118.47 65.16,0 118.47,-53.31 118.47,-118.47"
         style="fill:none;stroke:#ffffff;stroke-width:52.5703;stroke-linecap:butt;stroke-linejoin:round;stroke-miterlimit:10;stroke-dasharray:none;stroke-opacity:1"
         id="path184" />
      <path
         d="m 3068.33,4841.65 c 0,-42.94 -34.8,-77.74 -77.75,-77.74 -42.94,0 -77.74,34.8 -77.74,77.74 0,42.95 34.8,77.75 77.74,77.75 42.95,0 77.75,-34.8 77.75,-77.75 v 0"
         style="fill:#c02f37;fill-opacity:1;fill-rule:nonzero;stroke:none"
         id="path186" />
      <path
         d="m 3068.33,4841.65 c 0,-42.94 -34.8,-77.74 -77.75,-77.74 -42.94,0 -77.74,34.8 -77.74,77.74 0,42.95 34.8,77.75 77.74,77.75 42.95,0 77.75,-34.8 77.75,-77.75"
         style="fill:none;stroke:#ffffff;stroke-width:52.5703;stroke-linecap:butt;stroke-linejoin:round;stroke-miterlimit:10;stroke-dasharray:none;stroke-opacity:1"
         id="path188" />
      <path
         d="m 3029.09,4841.65 c 0,-21.47 -17.03,-39.24 -38.51,-39.24 -21.47,0 -39.24,17.77 -39.24,39.24 0,21.47 17.77,38.5 39.24,38.5 21.48,0 38.51,-17.03 38.51,-38.5 v 0"
         style="fill:#c02f37;fill-opacity:1;fill-rule:nonzero;stroke:none"
         id="path190" />
      <path
         d="m 3029.09,4841.65 c 0,-21.47 -17.03,-39.24 -38.51,-39.24 -21.47,0 -39.24,17.77 -39.24,39.24 0,21.47 17.77,38.5 39.24,38.5 21.48,0 38.51,-17.03 38.51,-38.5"
         style="fill:none;stroke:#ffffff;stroke-width:52.5703;stroke-linecap:butt;stroke-linejoin:round;stroke-miterlimit:10;stroke-dasharray:none;stroke-opacity:1"
         id="path192" />
      <path
         d="m 3277.87,4854.24 c 0,-65.9 -53.31,-118.47 -118.47,-118.47 -65.16,0 -118.47,52.57 -118.47,118.47 0,65.16 53.31,118.47 118.47,118.47 65.16,0 118.47,-53.31 118.47,-118.47 v 0"
         style="fill:#c02f37;fill-opacity:1;fill-rule:nonzero;stroke:none"
         id="path194" />
      <path
         d="m 3277.87,4854.24 c 0,-65.9 -53.31,-118.47 -118.47,-118.47 -65.16,0 -118.47,52.57 -118.47,118.47 0,65.16 53.31,118.47 118.47,118.47 65.16,0 118.47,-53.31 118.47,-118.47"
         style="fill:none;stroke:#ffffff;stroke-width:52.5703;stroke-linecap:butt;stroke-linejoin:round;stroke-miterlimit:10;stroke-dasharray:none;stroke-opacity:1"
         id="path196" />
      <path
         d="m 3237.15,4854.24 c 0,-42.95 -34.81,-77.75 -77.75,-77.75 -42.94,0 -77.74,34.8 -77.74,77.75 0,42.94 34.8,77.74 77.74,77.74 42.94,0 77.75,-34.8 77.75,-77.74 v 0"
         style="fill:#c02f37;fill-opacity:1;fill-rule:nonzero;stroke:none"
         id="path198" />
      <path
         d="m 3237.15,4854.24 c 0,-42.95 -34.81,-77.75 -77.75,-77.75 -42.94,0 -77.74,34.8 -77.74,77.75 0,42.94 34.8,77.74 77.74,77.74 42.94,0 77.75,-34.8 77.75,-77.74"
         style="fill:none;stroke:#ffffff;stroke-width:52.5703;stroke-linecap:butt;stroke-linejoin:round;stroke-miterlimit:10;stroke-dasharray:none;stroke-opacity:1"
         id="path200" />
      <path
         d="m 3197.9,4854.24 c 0,-21.47 -17.03,-39.25 -38.5,-39.25 -21.47,0 -38.5,17.78 -38.5,39.25 0,21.47 17.03,38.5 38.5,38.5 21.47,0 38.5,-17.03 38.5,-38.5 v 0"
         style="fill:#c02f37;fill-opacity:1;fill-rule:nonzero;stroke:none"
         id="path202" />
      <path
         d="m 3197.9,4854.24 c 0,-21.47 -17.03,-39.25 -38.5,-39.25 -21.47,0 -38.5,17.78 -38.5,39.25 0,21.47 17.03,38.5 38.5,38.5 21.47,0 38.5,-17.03 38.5,-38.5"
         style="fill:none;stroke:#ffffff;stroke-width:52.5703;stroke-linecap:butt;stroke-linejoin:round;stroke-miterlimit:10;stroke-dasharray:none;stroke-opacity:1"
         id="path204" />
      <path
         d="m 3444.46,4854.24 c 0,-65.9 -53.31,-118.47 -118.46,-118.47 -65.9,0 -119.21,52.57 -119.21,118.47 0,65.16 53.31,118.47 119.21,118.47 65.15,0 118.46,-53.31 118.46,-118.47 v 0"
         style="fill:#c02f37;fill-opacity:1;fill-rule:nonzero;stroke:none"
         id="path206" />
      <path
         d="m 3444.46,4854.24 c 0,-65.9 -53.31,-118.47 -118.46,-118.47 -65.9,0 -119.21,52.57 -119.21,118.47 0,65.16 53.31,118.47 119.21,118.47 65.15,0 118.46,-53.31 118.46,-118.47"
         style="fill:none;stroke:#ffffff;stroke-width:52.5703;stroke-linecap:butt;stroke-linejoin:round;stroke-miterlimit:10;stroke-dasharray:none;stroke-opacity:1"
         id="path208" />
      <path
         d="m 3403.74,4854.24 c 0,-42.95 -34.8,-77.75 -77.74,-77.75 -42.95,0 -78.49,34.8 -78.49,77.75 0,42.94 35.54,77.74 78.49,77.74 42.94,0 77.74,-34.8 77.74,-77.74 v 0"
         style="fill:#c02f37;fill-opacity:1;fill-rule:nonzero;stroke:none"
         id="path210" />
      <path
         d="m 3403.74,4854.24 c 0,-42.95 -34.8,-77.75 -77.74,-77.75 -42.95,0 -78.49,34.8 -78.49,77.75 0,42.94 35.54,77.74 78.49,77.74 42.94,0 77.74,-34.8 77.74,-77.74"
         style="fill:none;stroke:#ffffff;stroke-width:52.5703;stroke-linecap:butt;stroke-linejoin:round;stroke-miterlimit:10;stroke-dasharray:none;stroke-opacity:1"
         id="path212" />
      <path
         d="m 3364.5,4854.24 c 0,-21.47 -17.03,-39.25 -38.5,-39.25 -21.48,0 -39.25,17.78 -39.25,39.25 0,21.47 17.77,38.5 39.25,38.5 21.47,0 38.5,-17.03 38.5,-38.5 v 0"
         style="fill:#c02f37;fill-opacity:1;fill-rule:nonzero;stroke:none"
         id="path214" />
      <path
         d="m 3364.5,4854.24 c 0,-21.47 -17.03,-39.25 -38.5,-39.25 -21.48,0 -39.25,17.78 -39.25,39.25 0,21.47 17.77,38.5 39.25,38.5 21.47,0 38.5,-17.03 38.5,-38.5"
         style="fill:none;stroke:#ffffff;stroke-width:52.5703;stroke-linecap:butt;stroke-linejoin:round;stroke-miterlimit:10;stroke-dasharray:none;stroke-opacity:1"
         id="path216" />
      <path
         d="m 3631.79,4869.05 c 0,-27.4 -8.88,-53.31 -25.17,-73.31 -40.73,-14.06 -82.93,-28.13 -124.39,-40.72 -50.35,13.33 -87.37,59.23 -87.37,114.03 0,65.89 53.31,118.46 118.46,118.46 65.9,0 118.47,-52.57 118.47,-118.46 v 0"
         style="fill:#c02f37;fill-opacity:1;fill-rule:nonzero;stroke:none"
         id="path218" />
      <path
         d="m 3482.23,4755.02 c -50.35,13.33 -87.37,59.23 -87.37,114.03 0,65.89 53.31,118.46 118.46,118.46 65.9,0 118.47,-52.57 118.47,-118.46 m 0,0 c 0,-27.4 -8.88,-53.31 -25.17,-73.31"
         style="fill:none;stroke:#ffffff;stroke-width:52.5703;stroke-linecap:butt;stroke-linejoin:round;stroke-miterlimit:10;stroke-dasharray:none;stroke-opacity:1"
         id="path220" />
      <path
         d="m 3591.07,4869.05 c 0,-42.95 -34.8,-77.75 -77.75,-77.75 -42.94,0 -77.74,34.8 -77.74,77.75 0,42.94 34.8,77.74 77.74,77.74 42.95,0 77.75,-34.8 77.75,-77.74 v 0"
         style="fill:#c02f37;fill-opacity:1;fill-rule:nonzero;stroke:none"
         id="path222" />
      <path
         d="m 3591.07,4869.05 c 0,-42.95 -34.8,-77.75 -77.75,-77.75 -42.94,0 -77.74,34.8 -77.74,77.75 0,42.94 34.8,77.74 77.74,77.74 42.95,0 77.75,-34.8 77.75,-77.74"
         style="fill:none;stroke:#ffffff;stroke-width:52.5703;stroke-linecap:butt;stroke-linejoin:round;stroke-miterlimit:10;stroke-dasharray:none;stroke-opacity:1"
         id="path224" />
      <path
         d="m 3552.57,4869.05 c 0,-21.48 -17.77,-38.51 -39.25,-38.51 -21.47,0 -38.5,17.03 -38.5,38.51 0,21.47 17.03,39.24 38.5,39.24 21.48,0 39.25,-17.77 39.25,-39.24 v 0"
         style="fill:#c02f37;fill-opacity:1;fill-rule:nonzero;stroke:none"
         id="path226" />
      <path
         d="m 3552.57,4869.05 c 0,-21.48 -17.77,-38.51 -39.25,-38.51 -21.47,0 -38.5,17.03 -38.5,38.51 0,21.47 17.03,39.24 38.5,39.24 21.48,0 39.25,-17.77 39.25,-39.24"
         style="fill:none;stroke:#ffffff;stroke-width:52.5703;stroke-linecap:butt;stroke-linejoin:round;stroke-miterlimit:10;stroke-dasharray:none;stroke-opacity:1"
         id="path228" />
      <path
         d="m 3874.65,4926.06 c 0,-11.85 -1.48,-23.69 -5.18,-34.06 -51.09,-19.99 -111.81,-42.94 -176.96,-65.9 -33.32,20.73 -54.79,57.75 -54.79,99.96 0,44.42 23.69,82.93 59.97,102.92 56.27,-10.37 107.36,-20.73 152.53,-31.1 15.55,-19.99 24.43,-45.17 24.43,-71.82 v 0"
         style="fill:#c02f37;fill-opacity:1;fill-rule:nonzero;stroke:none"
         id="path230" />
      <path
         d="m 3850.22,4997.88 c 15.55,-19.99 24.43,-45.17 24.43,-71.82 m -182.14,-99.96 c -33.32,20.73 -54.79,57.75 -54.79,99.96 0,44.42 23.69,82.93 59.97,102.92 m 176.96,-102.92 c 0,-11.85 -1.48,-23.69 -5.18,-34.06"
         style="fill:none;stroke:#ffffff;stroke-width:52.5703;stroke-linecap:butt;stroke-linejoin:round;stroke-miterlimit:10;stroke-dasharray:none;stroke-opacity:1"
         id="path232" />
      <path
         d="m 3833.93,4926.06 c 0,-22.95 -9.63,-43.69 -25.18,-57.75 -17.77,-6.67 -35.54,-13.33 -54.79,-20 -41.46,0.75 -75.52,35.54 -75.52,77.75 0,42.94 34.8,77.74 77.74,77.74 42.95,0 77.75,-34.8 77.75,-77.74 v 0"
         style="fill:#c02f37;fill-opacity:1;fill-rule:nonzero;stroke:none"
         id="path234" />
      <path
         d="m 3753.96,4848.31 c -41.46,0.75 -75.52,35.54 -75.52,77.75 0,42.94 34.8,77.74 77.74,77.74 42.95,0 77.75,-34.8 77.75,-77.74 m 0,0 c 0,-22.95 -9.63,-43.69 -25.18,-57.75"
         style="fill:none;stroke:#ffffff;stroke-width:52.5703;stroke-linecap:butt;stroke-linejoin:round;stroke-miterlimit:10;stroke-dasharray:none;stroke-opacity:1"
         id="path236" />
      <path
         d="m 3794.69,4926.06 c 0,-21.47 -17.03,-38.5 -38.51,-38.5 -21.47,0 -39.24,17.03 -39.24,38.5 0,21.47 17.77,39.24 39.24,39.24 21.48,0 38.51,-17.77 38.51,-39.24 v 0"
         style="fill:#c02f37;fill-opacity:1;fill-rule:nonzero;stroke:none"
         id="path238" />
      <path
         d="m 3794.69,4926.06 c 0,-21.47 -17.03,-38.5 -38.51,-38.5 -21.47,0 -39.24,17.03 -39.24,38.5 0,21.47 17.77,39.24 39.24,39.24 21.48,0 38.51,-17.77 38.51,-39.24"
         style="fill:none;stroke:#ffffff;stroke-width:52.5703;stroke-linecap:butt;stroke-linejoin:round;stroke-miterlimit:10;stroke-dasharray:none;stroke-opacity:1"
         id="path240" />
      <path
         d="m 2790.67,4757.98 c 0,-15.55 -2.96,-30.36 -8.15,-44.42 -82.18,20.73 -159.19,46.64 -225.83,71.82 12.59,51.83 59.24,91.07 115.51,91.07 65.16,0 118.47,-53.31 118.47,-118.47 v 0"
         style="fill:#c02f37;fill-opacity:1;fill-rule:nonzero;stroke:none"
         id="path242" />
      <path
         d="m 2556.69,4785.38 c 12.59,51.83 59.24,91.07 115.51,91.07 65.16,0 118.47,-53.31 118.47,-118.47 m 0,0 c 0,-15.55 -2.96,-30.36 -8.15,-44.42"
         style="fill:none;stroke:#ffffff;stroke-width:52.5703;stroke-linecap:butt;stroke-linejoin:round;stroke-miterlimit:10;stroke-dasharray:none;stroke-opacity:1"
         id="path244" />
      <path
         d="m 2749.94,4757.98 c 0,-12.58 -2.96,-23.69 -7.4,-34.06 -51.83,14.81 -101.44,31.1 -147.34,47.39 6.66,36.28 38.5,64.42 77,64.42 42.94,0 77.74,-34.8 77.74,-77.75 v 0"
         style="fill:#c02f37;fill-opacity:1;fill-rule:nonzero;stroke:none"
         id="path246" />
      <path
         d="m 2595.2,4771.31 c 6.66,36.28 38.5,64.42 77,64.42 42.94,0 77.74,-34.8 77.74,-77.75 m 0,0 c 0,-12.58 -2.96,-23.69 -7.4,-34.06"
         style="fill:none;stroke:#ffffff;stroke-width:52.5703;stroke-linecap:butt;stroke-linejoin:round;stroke-miterlimit:10;stroke-dasharray:none;stroke-opacity:1"
         id="path248" />
      <path
         d="m 2710.7,4757.98 c 0,-8.88 -2.22,-16.29 -6.66,-22.95 -24.44,7.4 -48.13,15.55 -71.08,22.95 0.74,21.47 17.77,38.5 39.24,38.5 21.47,0 38.5,-17.03 38.5,-38.5 v 0"
         style="fill:#c02f37;fill-opacity:1;fill-rule:nonzero;stroke:none"
         id="path250" />
      <path
         d="m 2632.96,4757.98 c 0.74,21.47 17.77,38.5 39.24,38.5 21.47,0 38.5,-17.03 38.5,-38.5 m 0,0 c 0,-8.88 -2.22,-16.29 -6.66,-22.95"
         style="fill:none;stroke:#ffffff;stroke-width:52.5703;stroke-linecap:butt;stroke-linejoin:round;stroke-miterlimit:10;stroke-dasharray:none;stroke-opacity:1"
         id="path252" />
      <path
         d="m 3532.58,4770.57 c -1.49,6.66 -2.23,13.33 -2.23,20.73 0,65.16 53.31,118.47 119.21,118.47 44.43,0 83.67,-25.17 103.66,-62.2 -68.12,-25.17 -144.38,-51.83 -220.64,-77 v 0"
         style="fill:#c02f37;fill-opacity:1;fill-rule:nonzero;stroke:none"
         id="path254" />
      <path
         d="m 3532.58,4770.57 c -1.49,6.66 -2.23,13.33 -2.23,20.73 0,65.16 53.31,118.47 119.21,118.47 44.43,0 83.67,-25.17 103.66,-62.2"
         style="fill:none;stroke:#ffffff;stroke-width:52.5703;stroke-linecap:butt;stroke-linejoin:round;stroke-miterlimit:10;stroke-dasharray:none;stroke-opacity:1"
         id="path256" />
      <path
         d="m 3571.82,4783.9 c 0,2.22 -0.74,4.44 -0.74,7.4 0,42.95 34.8,77.75 78.48,77.75 26.66,0 51.09,-14.07 64.42,-35.54 -45.17,-16.29 -93.29,-33.32 -142.16,-49.61 v 0"
         style="fill:#c02f37;fill-opacity:1;fill-rule:nonzero;stroke:none"
         id="path258" />
      <path
         d="m 3571.82,4783.9 c 0,2.22 -0.74,4.44 -0.74,7.4 0,42.95 34.8,77.75 78.48,77.75 26.66,0 51.09,-14.07 64.42,-35.54"
         style="fill:none;stroke:#ffffff;stroke-width:52.5703;stroke-linecap:butt;stroke-linejoin:round;stroke-miterlimit:10;stroke-dasharray:none;stroke-opacity:1"
         id="path260" />
      <path
         d="m 3611.06,4797.23 c 2.96,18.51 18.51,32.57 38.5,32.57 9.63,0 19.25,-3.7 25.92,-10.36 -21.47,-7.41 -42.95,-14.81 -64.42,-22.21 v 0"
         style="fill:#c02f37;fill-opacity:1;fill-rule:nonzero;stroke:none"
         id="path262" />
      <path
         d="m 3611.06,4797.23 c 2.96,18.51 18.51,32.57 38.5,32.57 9.63,0 19.25,-3.7 25.92,-10.36"
         style="fill:none;stroke:#ffffff;stroke-width:52.5703;stroke-linecap:butt;stroke-linejoin:round;stroke-miterlimit:10;stroke-dasharray:none;stroke-opacity:1"
         id="path264" />
      <path
         d="m 3013.54,4735.77 c 0,-22.21 -5.93,-42.95 -16.29,-60.72 -74.05,6.67 -148.09,21.48 -219.17,39.25 -0.74,7.4 -1.48,14.07 -1.48,21.47 0,65.16 53.31,118.47 118.47,118.47 65.9,0 118.47,-53.31 118.47,-118.47 v 0"
         style="fill:#c02f37;fill-opacity:1;fill-rule:nonzero;stroke:none"
         id="path266" />
      <path
         d="m 2778.08,4714.3 c -0.74,7.4 -1.48,14.07 -1.48,21.47 0,65.16 53.31,118.47 118.47,118.47 65.9,0 118.47,-53.31 118.47,-118.47 m 0,0 c 0,-22.21 -5.93,-42.95 -16.29,-60.72"
         style="fill:none;stroke:#ffffff;stroke-width:52.5703;stroke-linecap:butt;stroke-linejoin:round;stroke-miterlimit:10;stroke-dasharray:none;stroke-opacity:1"
         id="path268" />
      <path
         d="m 2972.81,4735.77 c 0,-21.47 -8.88,-41.46 -22.95,-55.53 -42.2,5.92 -84.41,14.07 -125.87,22.95 -4.45,10.37 -6.67,20.73 -6.67,32.58 0,42.94 34.8,77.74 77.75,77.74 42.94,0 77.74,-34.8 77.74,-77.74 v 0"
         style="fill:#c02f37;fill-opacity:1;fill-rule:nonzero;stroke:none"
         id="path270" />
      <path
         d="m 2823.99,4703.19 c -4.45,10.37 -6.67,20.73 -6.67,32.58 0,42.94 34.8,77.74 77.75,77.74 42.94,0 77.74,-34.8 77.74,-77.74 m 0,0 c 0,-21.47 -8.88,-41.46 -22.95,-55.53"
         style="fill:none;stroke:#ffffff;stroke-width:52.5703;stroke-linecap:butt;stroke-linejoin:round;stroke-miterlimit:10;stroke-dasharray:none;stroke-opacity:1"
         id="path272" />
      <path
         d="m 2934.31,4735.77 c 0,-21.47 -17.77,-39.24 -39.24,-39.24 -21.47,0 -38.5,17.77 -38.5,39.24 0,21.47 17.03,38.5 38.5,38.5 21.47,0 39.24,-17.03 39.24,-38.5 v 0"
         style="fill:#c02f37;fill-opacity:1;fill-rule:nonzero;stroke:none"
         id="path274" />
      <path
         d="m 2934.31,4735.77 c 0,-21.47 -17.77,-39.24 -39.24,-39.24 -21.47,0 -38.5,17.77 -38.5,39.24 0,21.47 17.03,38.5 38.5,38.5 21.47,0 39.24,-17.03 39.24,-38.5"
         style="fill:none;stroke:#ffffff;stroke-width:52.5703;stroke-linecap:butt;stroke-linejoin:round;stroke-miterlimit:10;stroke-dasharray:none;stroke-opacity:1"
         id="path276" />
      <path
         d="m 3210.49,4732.07 c 0,-17.77 -4.44,-35.54 -11.85,-50.35 -39.98,-7.41 -77,-11.11 -107.36,-11.11 -34.06,0 -68.86,1.48 -104.4,5.18 -8.88,17.03 -14.07,36.29 -14.07,56.28 0,65.16 53.31,118.47 118.47,118.47 65.9,0 119.21,-53.31 119.21,-118.47 v 0"
         style="fill:#c02f37;fill-opacity:1;fill-rule:nonzero;stroke:none"
         id="path278" />
      <path
         d="m 2986.88,4675.79 c -8.88,17.03 -14.07,36.29 -14.07,56.28 0,65.16 53.31,118.47 118.47,118.47 65.9,0 119.21,-53.31 119.21,-118.47 m 0,0 c 0,-17.77 -4.44,-35.54 -11.85,-50.35"
         style="fill:none;stroke:#ffffff;stroke-width:52.5703;stroke-linecap:butt;stroke-linejoin:round;stroke-miterlimit:10;stroke-dasharray:none;stroke-opacity:1"
         id="path280" />
      <path
         d="m 3169.77,4732.07 c 0,-23.7 -10.37,-44.43 -27.4,-58.5 -17.77,-2.22 -35.54,-2.96 -51.09,-2.96 -15.55,0 -32.58,0 -48.87,0.74 -17.03,14.81 -28.87,36.28 -28.87,60.72 0,42.94 34.8,77.74 77.74,77.74 43.69,0 78.49,-34.8 78.49,-77.74 v 0"
         style="fill:#c02f37;fill-opacity:1;fill-rule:nonzero;stroke:none"
         id="path282" />
      <path
         d="m 3042.41,4671.35 c -17.03,14.81 -28.87,36.28 -28.87,60.72 0,42.94 34.8,77.74 77.74,77.74 43.69,0 78.49,-34.8 78.49,-77.74 m 0,0 c 0,-23.7 -10.37,-44.43 -27.4,-58.5"
         style="fill:none;stroke:#ffffff;stroke-width:52.5703;stroke-linecap:butt;stroke-linejoin:round;stroke-miterlimit:10;stroke-dasharray:none;stroke-opacity:1"
         id="path284" />
      <path
         d="m 3130.52,4732.07 c 0,-21.47 -17.77,-38.5 -39.24,-38.5 -21.47,0 -38.5,17.03 -38.5,38.5 0,21.47 17.03,38.5 38.5,38.5 21.47,0 39.24,-17.03 39.24,-38.5 v 0"
         style="fill:#c02f37;fill-opacity:1;fill-rule:nonzero;stroke:none"
         id="path286" />
      <path
         d="m 3130.52,4732.07 c 0,-21.47 -17.77,-38.5 -39.24,-38.5 -21.47,0 -38.5,17.03 -38.5,38.5 0,21.47 17.03,38.5 38.5,38.5 21.47,0 39.24,-17.03 39.24,-38.5"
         style="fill:none;stroke:#ffffff;stroke-width:52.5703;stroke-linecap:butt;stroke-linejoin:round;stroke-miterlimit:10;stroke-dasharray:none;stroke-opacity:1"
         id="path288" />
      <path
         d="m 3388.19,4732.07 c 0,-1.48 0,-3.7 -0.74,-5.19 -81.45,-23.69 -158.45,-42.2 -222.87,-51.09 -8.88,17.03 -14.06,36.29 -14.06,56.28 0,65.16 53.31,118.47 118.46,118.47 65.9,0 119.21,-53.31 119.21,-118.47 v 0"
         style="fill:#c02f37;fill-opacity:1;fill-rule:nonzero;stroke:none"
         id="path290" />
      <path
         d="m 3164.58,4675.79 c -8.88,17.03 -14.06,36.29 -14.06,56.28 0,65.16 53.31,118.47 118.46,118.47 65.9,0 119.21,-53.31 119.21,-118.47 m 0,0 c 0,-1.48 0,-3.7 -0.74,-5.19"
         style="fill:none;stroke:#ffffff;stroke-width:52.5703;stroke-linecap:butt;stroke-linejoin:round;stroke-miterlimit:10;stroke-dasharray:none;stroke-opacity:1"
         id="path292" />
      <path
         d="m 3347.47,4732.07 c 0,-5.93 -0.74,-11.85 -2.22,-17.03 -48.13,-13.33 -94.78,-23.7 -136.24,-31.84 -11.11,13.33 -17.77,30.36 -17.77,48.87 0,42.94 34.8,77.74 77.74,77.74 43.69,0 78.49,-34.8 78.49,-77.74 v 0"
         style="fill:#c02f37;fill-opacity:1;fill-rule:nonzero;stroke:none"
         id="path294" />
      <path
         d="m 3209.01,4683.2 c -11.11,13.33 -17.77,30.36 -17.77,48.87 0,42.94 34.8,77.74 77.74,77.74 43.69,0 78.49,-34.8 78.49,-77.74 m 0,0 c 0,-5.93 -0.74,-11.85 -2.22,-17.03"
         style="fill:none;stroke:#ffffff;stroke-width:52.5703;stroke-linecap:butt;stroke-linejoin:round;stroke-miterlimit:10;stroke-dasharray:none;stroke-opacity:1"
         id="path296" />
      <path
         d="m 3308.23,4732.07 c 0,-12.59 -5.93,-23.7 -14.81,-30.36 -11.11,-2.96 -21.48,-5.18 -31.84,-7.4 -17.77,3.7 -31.1,19.25 -31.1,37.76 0,21.47 17.03,38.5 38.5,38.5 21.48,0 39.25,-17.03 39.25,-38.5 v 0"
         style="fill:#c02f37;fill-opacity:1;fill-rule:nonzero;stroke:none"
         id="path298" />
      <path
         d="m 3261.58,4694.31 c -17.77,3.7 -31.1,19.25 -31.1,37.76 0,21.47 17.03,38.5 38.5,38.5 21.48,0 39.25,-17.03 39.25,-38.5 m 0,0 c 0,-12.59 -5.93,-23.7 -14.81,-30.36"
         style="fill:none;stroke:#ffffff;stroke-width:52.5703;stroke-linecap:butt;stroke-linejoin:round;stroke-miterlimit:10;stroke-dasharray:none;stroke-opacity:1"
         id="path300" />
      <path
         d="m 3339.32,4713.56 c -3.7,11.1 -5.92,22.95 -5.92,35.54 0,65.15 53.31,118.47 119.21,118.47 53.31,0 99.22,-36.29 113.28,-85.15 -76.26,-25.92 -154,-49.61 -226.57,-68.86 v 0"
         style="fill:#c02f37;fill-opacity:1;fill-rule:nonzero;stroke:none"
         id="path302" />
      <path
         d="m 3339.32,4713.56 c -3.7,11.1 -5.92,22.95 -5.92,35.54 0,65.15 53.31,118.47 119.21,118.47 53.31,0 99.22,-36.29 113.28,-85.15"
         style="fill:none;stroke:#ffffff;stroke-width:52.5703;stroke-linecap:butt;stroke-linejoin:round;stroke-miterlimit:10;stroke-dasharray:none;stroke-opacity:1"
         id="path304" />
      <path
         d="m 3378.57,4723.92 c -2.97,8.15 -4.45,16.29 -4.45,25.18 0,42.94 35.54,77.74 78.49,77.74 35.54,0 65.9,-24.43 74.78,-57.75 -50.35,-16.29 -99.96,-31.84 -148.82,-45.17 v 0"
         style="fill:#c02f37;fill-opacity:1;fill-rule:nonzero;stroke:none"
         id="path306" />
      <path
         d="m 3378.57,4723.92 c -2.97,8.15 -4.45,16.29 -4.45,25.18 0,42.94 35.54,77.74 78.49,77.74 35.54,0 65.9,-24.43 74.78,-57.75"
         style="fill:none;stroke:#ffffff;stroke-width:52.5703;stroke-linecap:butt;stroke-linejoin:round;stroke-miterlimit:10;stroke-dasharray:none;stroke-opacity:1"
         id="path308" />
      <path
         d="m 3416.33,4735.03 c -2.22,3.7 -2.96,8.88 -2.96,14.07 0,21.47 17.77,38.5 39.24,38.5 18.51,0 33.32,-12.59 37.76,-30.36 -25.17,-7.4 -49.61,-15.55 -74.04,-22.21 v 0"
         style="fill:#c02f37;fill-opacity:1;fill-rule:nonzero;stroke:none"
         id="path310" />
      <path
         d="m 3416.33,4735.03 c -2.22,3.7 -2.96,8.88 -2.96,14.07 0,21.47 17.77,38.5 39.24,38.5 18.51,0 33.32,-12.59 37.76,-30.36"
         style="fill:none;stroke:#ffffff;stroke-width:52.5703;stroke-linecap:butt;stroke-linejoin:round;stroke-miterlimit:10;stroke-dasharray:none;stroke-opacity:1"
         id="path312" />
      <path
         d="m 2252.38,4974.19 c 0,0 230.27,113.28 430.93,169.55 378.35,106.63 746.35,85.15 1099.53,16.29 277.66,-54.05 454.62,-140.68 454.62,-140.68 l -64.42,-95.51 c 0,0 -546.43,147.34 -776.7,148.08 -132.54,0.74 -445,10.37 -779.67,-93.29 -156.23,-48.87 -316.91,-102.18 -316.91,-102.18 l -47.38,97.74"
         style="fill:#c02f37;fill-opacity:1;fill-rule:nonzero;stroke:none"
         id="path314" />
      <path
         d="m 2252.38,4974.19 c 0,0 230.27,113.28 430.93,169.55 378.35,106.63 746.35,85.15 1099.53,16.29 277.66,-54.05 454.62,-140.68 454.62,-140.68 l -64.42,-95.51 c 0,0 -546.43,147.34 -776.7,148.08 -132.54,0.74 -445,10.37 -779.67,-93.29 -156.23,-48.87 -316.91,-102.18 -316.91,-102.18 z"
         style="fill:none;stroke:#0f0f0f;stroke-width:261.371;stroke-linecap:butt;stroke-linejoin:round;stroke-miterlimit:10;stroke-dasharray:none;stroke-opacity:1"
         id="path316" />
      <path
         d="m 3183.83,4879.41 c -109.58,0 -199.17,82.93 -199.17,184.37 0,101.44 89.59,183.62 199.17,183.62 109.59,0 199.18,-82.18 199.18,-183.62 0,-101.44 -89.59,-184.37 -199.18,-184.37 v 0"
         style="fill:#dc9934;fill-opacity:1;fill-rule:nonzero;stroke:none"
         id="path318" />
      <path
         d="m 3183.83,5256.29 v 0 c -114.76,0 -208.06,-86.63 -208.06,-192.51 0,-106.62 93.3,-193.25 208.06,-193.25 114.77,0 208.06,86.63 208.06,193.25 0,105.88 -93.29,192.51 -208.06,192.51 z m 0,-17.03 c 105.14,0 190.29,-78.49 190.29,-175.48 0,-97 -85.15,-175.48 -190.29,-175.48 -105.14,0 -190.29,78.48 -190.29,175.48 0,96.99 85.15,175.48 190.29,175.48 v 0"
         style="fill:#0f0f0f;fill-opacity:1;fill-rule:nonzero;stroke:none"
         id="path320" />
      <path
         d="m 3187.54,5006.77 c -74.79,0 -142.91,14.8 -193.26,38.5 10.37,-88.11 91.08,-156.97 189.55,-156.97 97,0 176.97,66.64 188.81,153.27 -49.61,-21.48 -114.02,-34.8 -185.1,-34.8 v 0"
         style="fill:#d5672b;fill-opacity:1;fill-rule:nonzero;stroke:none"
         id="path322" />
      <path
         d="m 3183.83,5145.97 c 0,-25.18 -19.99,-45.17 -45.16,-45.17 -25.18,0 -45.17,19.99 -45.17,45.17 0,25.17 19.99,45.16 45.17,45.16 25.17,0 45.16,-19.99 45.16,-45.16 v 0"
         style="fill:#d7db63;fill-opacity:1;fill-rule:nonzero;stroke:none"
         id="path324" />
      <path
         d="m 3286.01,5082.29 c 0,10.37 -8.14,18.51 -18.51,18.51 -10.36,0 -18.51,-8.14 -18.51,-18.51 0,-8.15 5.18,-14.81 11.85,-17.03 -2.22,-17.77 -6.67,-42.95 -11.85,-59.23 -5.92,-17.03 -14.81,-34.06 -21.47,-45.91 -0.74,0.74 -2.22,0.74 -3.7,0.74 -10.37,0 -18.51,-8.15 -18.51,-18.51 0,-10.37 8.14,-18.51 18.51,-18.51 10.36,0 18.51,8.14 18.51,18.51 0,2.96 -0.74,6.66 -2.22,8.88 5.92,10.37 15.55,27.4 19.99,40.73 8.14,22.95 13.33,54.79 16.29,74.04 5.92,2.96 9.62,8.88 9.62,16.29 v 0"
         style="fill:#3b1832;fill-opacity:1;fill-rule:nonzero;stroke:none"
         id="path326" />
      <path
         d="m 3168.29,5034.9 c -7.41,7.41 -7.41,19.25 0,25.92 7.4,7.4 19.25,7.4 26.65,0 5.18,-5.93 6.66,-14.07 2.96,-20.73 14.07,-11.11 34.8,-26.66 49.61,-34.81 15.55,-8.14 34.06,-14.8 46.65,-18.51 0.74,1.49 1.48,2.23 2.96,3.71 7.4,6.66 19.25,6.66 25.91,-0.74 7.41,-7.41 6.67,-19.26 -0.74,-26.66 -7.4,-6.66 -19.25,-6.66 -25.91,0.74 -2.22,2.22 -3.7,5.18 -4.44,8.15 -11.85,3.7 -31.1,8.88 -42.95,15.54 -21.47,10.37 -47.39,30.36 -62.19,42.21 -6.67,-1.48 -14.07,0 -18.51,5.18 v 0"
         style="fill:#3b1832;fill-opacity:1;fill-rule:nonzero;stroke:none"
         id="path328" />
      <path
         d="m 2471.54,4988.26 c 0,-17.78 -14.8,-32.58 -32.58,-32.58 -18.51,0 -33.31,14.8 -33.31,32.58 0,18.51 14.8,33.31 33.31,33.31 17.78,0 32.58,-14.8 32.58,-33.31 v 0"
         style="fill:#c7c73a;fill-opacity:1;fill-rule:nonzero;stroke:none"
         id="path330" />
      <path
         d="m 2618.15,5043.05 c 0,-18.51 -14.81,-33.32 -33.32,-33.32 -18.51,0 -33.32,14.81 -33.32,33.32 0,18.51 14.81,33.32 33.32,33.32 18.51,0 33.32,-14.81 33.32,-33.32 v 0"
         style="fill:#c7c73a;fill-opacity:1;fill-rule:nonzero;stroke:none"
         id="path332" />
      <path
         d="m 2772.16,5080.07 c 0,-17.77 -14.81,-32.58 -32.58,-32.58 -18.51,0 -33.32,14.81 -33.32,32.58 0,18.51 14.81,33.32 33.32,33.32 17.77,0 32.58,-14.81 32.58,-33.32 v 0"
         style="fill:#c7c73a;fill-opacity:1;fill-rule:nonzero;stroke:none"
         id="path334" />
      <path
         d="m 2940.97,5123.01 c 0,-18.51 -14.8,-33.32 -33.31,-33.32 -18.52,0 -33.32,14.81 -33.32,33.32 0,18.51 14.8,33.32 33.32,33.32 18.51,0 33.31,-14.81 33.31,-33.32 v 0"
         style="fill:#c7c73a;fill-opacity:1;fill-rule:nonzero;stroke:none"
         id="path336" />
      <path
         d="m 3561.45,5130.42 c 0,-17.77 -14.81,-32.58 -33.32,-32.58 -17.77,0 -32.58,14.81 -32.58,32.58 0,18.51 14.81,33.32 32.58,33.32 18.51,0 33.32,-14.81 33.32,-33.32 v 0"
         style="fill:#c7c73a;fill-opacity:1;fill-rule:nonzero;stroke:none"
         id="path338" />
      <path
         d="m 3717.68,5114.13 c 0,-17.77 -14.81,-32.58 -33.32,-32.58 -18.51,0 -33.32,14.81 -33.32,32.58 0,18.51 14.81,33.32 33.32,33.32 18.51,0 33.32,-14.81 33.32,-33.32 v 0"
         style="fill:#c7c73a;fill-opacity:1;fill-rule:nonzero;stroke:none"
         id="path340" />
      <path
         d="m 3880.58,5076.37 c 0,-18.52 -14.81,-33.32 -33.32,-33.32 -18.51,0 -33.32,14.8 -33.32,33.32 0,17.77 14.81,32.57 33.32,32.57 18.51,0 33.32,-14.8 33.32,-32.57 v 0"
         style="fill:#c7c73a;fill-opacity:1;fill-rule:nonzero;stroke:none"
         id="path342" />
      <path
         d="m 4050.13,5025.28 c 0,-18.51 -14.81,-33.32 -33.32,-33.32 -18.51,0 -33.32,14.81 -33.32,33.32 0,17.77 14.81,32.57 33.32,32.57 18.51,0 33.32,-14.8 33.32,-32.57 v 0"
         style="fill:#c7c73a;fill-opacity:1;fill-rule:nonzero;stroke:none"
         id="path344" />
      <path
         d="m 2843.24,3902.79 c 58.49,-2.22 119.95,-2.96 178.44,-2.96 97,0 188.07,1.48 251.75,1.48 24.43,0 45.16,0 60.71,-0.74 65.9,-2.22 215.46,-4.44 355.41,-4.44 114.76,0 223.6,1.48 273.95,3.7 110.33,5.92 245.82,-7.41 259.89,179.92 8.89,124.39 -66.64,219.17 -114.02,232.5 -34.06,8.88 -79.23,22.95 -131.06,22.95 -5.92,0 -11.84,0 -17.03,0 -111.06,-6.67 -200.65,-31.84 -200.65,-31.84 0,0 68.86,30.36 145.86,42.2 31.84,4.45 62.94,6.67 92.55,6.67 43.69,0 83.67,-5.18 119.21,-14.07 l -29.61,124.39 h 36.28 l 27.39,-116.24 c 1.48,-5.93 1.48,-11.11 0,-17.03 57.01,-39.25 114.77,-135.5 105.88,-252.49 -6.66,-88.85 -39.24,-148.09 -99.21,-179.92 -50.35,-26.66 -111.07,-28.88 -164.38,-30.36 -10.36,-0.74 -19.99,-0.74 -29.62,-1.48 -45.9,-2.22 -146.6,-3.7 -275.43,-3.7 -147.35,0 -293.95,1.48 -356.89,4.44 -13.33,0.74 -33.32,0.74 -59.23,0.74 -28.88,0 -63.68,0 -99.96,-0.74 -45.91,0 -98.48,-0.74 -151.79,-0.74 -53.31,0 -116.25,0.74 -178.44,2.22 v 35.54"
         style="fill:#0f0f0f;fill-opacity:1;fill-rule:nonzero;stroke:none"
         id="path346" />
      <path
         d="m 3191.98,4723.18 c -129.58,0 -234.72,-104.4 -234.72,-233.97 v -346.52 c 0,-128.84 105.14,-233.98 234.72,-233.98 129.57,0 233.97,105.14 233.97,233.98 v 346.52 c 0,129.57 -104.4,233.97 -233.97,233.97 v 0"
         style="fill:#f1b523;fill-opacity:1;fill-rule:nonzero;stroke:none"
         id="path348" />
      <path
         d="m 2957.26,4298.18 v 0 h 468.69 v 35.54 h -468.69 z m 0,184.36 v 0 -35.54 h 468.69 v 35.54 z m 0,-333.19 h 468.69 v 35.54 h -468.69 v -35.54"
         style="fill:#cf7526;fill-opacity:1;fill-rule:nonzero;stroke:none"
         id="path350" />
      <path
         d="m 3498.52,4607.68 c -194,-16.29 -323.57,-231.76 -72.57,-384.29 28.14,-16.28 114.77,-17.77 159.94,5.19 100.69,50.35 -6.67,336.15 -87.37,379.1 v 0"
         style="fill:#ffffff;fill-opacity:1;fill-rule:evenodd;stroke:none"
         id="path352" />
      <path
         d="m 3928.7,4857.2 c 10.37,5.18 22.96,1.48 28.14,-8.89 5.18,-10.36 1.48,-22.95 -8.89,-28.13 -54.79,-27.4 -108.1,-59.24 -161.41,-90.33 -108.1,-64.42 -216.94,-128.1 -338.37,-160.68 -84.41,-22.95 -128.1,-72.56 -139.2,-125.87 -5.19,-23.69 -3.71,-48.13 2.22,-71.82 6.66,-22.95 18.51,-45.91 35.54,-65.9 43.68,-52.57 119.95,-84.41 217.68,-62.93 118.47,26.65 231.02,68.86 338.38,125.13 107.36,56.27 216.2,128.83 305.05,216.94 12.59,11.11 45.91,-17.03 21.48,-37.76 -79.97,-98.48 -196.96,-158.45 -307.28,-216.2 -110.32,-57.76 -225.83,-101.44 -348.74,-128.84 -114.77,-25.91 -205.84,13.33 -259.15,77.01 -19.99,24.43 -34.8,52.57 -42.95,82.18 -8.14,29.62 -9.62,60.72 -3.7,90.34 14.07,68.86 67.38,131.05 169.56,158.45 116.25,31.1 222.13,93.29 328.01,156.23 54.05,31.84 108.1,62.93 163.63,91.07 v 0"
         style="fill:#0f0f0f;fill-opacity:1;fill-rule:nonzero;stroke:none"
         id="path354" />
      <path
         d="m 4156.75,4115.29 c 0,-86.63 -93.29,-156.23 -208.06,-156.23 -115.5,0 -208.8,69.6 -208.8,156.23 0,86.63 93.3,156.97 208.8,156.97 114.77,0 208.06,-70.34 208.06,-156.97 v 0"
         style="fill:#f0aeba;fill-opacity:1;fill-rule:nonzero;stroke:none"
         id="path356" />
      <path
         d="m 1006.64,2120.42 v -446.28 h 236.42 v -61.23 H 902.59 v 462.92 l -21.238,44.59 h 125.288"
         style="fill:#ffffff;fill-opacity:1;fill-rule:nonzero;stroke:none"
         id="path358" />
      <path
         d="m 1409.04,1795.89 c 0,-85.89 36.46,-128.83 109.36,-128.83 72.91,0 109.36,42.94 109.36,128.83 v 324.53 h 104.05 v -324.53 c 0,-126.71 -71.14,-190.06 -213.41,-190.06 -142.27,0 -213.41,63.35 -213.41,190.06 v 279.94 l -21.24,44.59 h 125.29 v -324.53"
         style="fill:#ffffff;fill-opacity:1;fill-rule:nonzero;stroke:none"
         id="path360" />
      <path
         d="m 2025.21,1605.83 c -161.16,0 -241.73,86.95 -241.73,260.84 0,173.89 80.57,260.83 241.73,260.83 79.98,0 144.16,-14.51 192.52,-43.52 l -49.54,-74.33 c -32.33,37.75 -79.99,56.63 -142.98,56.63 -91.79,0 -137.68,-66.54 -137.68,-199.61 0,-133.07 45.89,-199.61 137.68,-199.61 69.13,0 119.38,23.83 150.77,71.5 l 55.56,-77.86 c -49.55,-36.59 -118.33,-54.87 -206.33,-54.87"
         style="fill:#ffffff;fill-opacity:1;fill-rule:nonzero;stroke:none"
         id="path362" />
      <path
         d="m 2392.22,1842.25 v -229.34 h -104.06 v 462.92 l -21.23,44.59 h 125.29 v -216.94 l 188.28,216.94 h 93.43 l -186.16,-225.44 228.63,-282.07 h -135.9 l -188.28,229.34"
         style="fill:#ffffff;fill-opacity:1;fill-rule:nonzero;stroke:none"
         id="path364" />
      <path
         d="m 2923.44,1798.71 -145.11,277.12 -46.71,44.59 h 142.27 l 114.67,-237.47 104.41,237.47 h 83.52 l -149.35,-312.15 v -195.36 h -103.7 v 185.8"
         style="fill:#ffffff;fill-opacity:1;fill-rule:nonzero;stroke:none"
         id="path366" />
      <path
         d="m 3522.62,1842.25 v -229.34 h -104.06 v 462.92 l -21.23,44.59 h 125.29 v -216.94 l 188.28,216.94 h 93.44 l -186.17,-225.44 228.64,-282.07 H 3710.9 l -188.28,229.34"
         style="fill:#ffffff;fill-opacity:1;fill-rule:nonzero;stroke:none"
         id="path368" />
      <path
         d="m 3994.39,2120.42 v -507.51 h -104.05 v 462.92 l -21.23,44.59 h 125.28"
         style="fill:#ffffff;fill-opacity:1;fill-rule:nonzero;stroke:none"
         id="path370" />
      <path
         d="m 4035.09,2059.2 v 61.22 h 389.3 v -61.22 h -142.62 v -446.29 h -104.06 v 446.29 h -142.62"
         style="fill:#ffffff;fill-opacity:1;fill-rule:nonzero;stroke:none"
         id="path372" />
      <path
         d="m 4464.03,2059.2 v 61.22 h 389.31 v -61.22 h -142.63 v -446.29 h -104.05 v 446.29 h -142.63"
         style="fill:#ffffff;fill-opacity:1;fill-rule:nonzero;stroke:none"
         id="path374" />
      <path
         d="m 5079.84,1798.71 -145.09,277.12 -46.72,44.59 h 142.27 l 114.67,-237.47 104.41,237.47 h 83.52 l -149.36,-312.15 v -195.36 h -103.7 v 185.8"
         style="fill:#ffffff;fill-opacity:1;fill-rule:nonzero;stroke:none"
         id="path376" />
      <path
         d="m 1868.76,3335.03 v -559.57 h 296.44 v -76.77 h -426.89 v 580.43 l -26.63,55.91 h 157.08"
         style="fill:#ffffff;fill-opacity:1;fill-rule:nonzero;stroke:none"
         id="path378" />
      <path
         d="m 2373.31,3335.03 v -636.34 h -130.46 v 580.43 l -26.62,55.91 h 157.08"
         style="fill:#ffffff;fill-opacity:1;fill-rule:nonzero;stroke:none"
         id="path380" />
      <path
         d="m 2424.35,3258.27 v 76.76 h 488.13 v -76.76 h -178.84 v -559.58 h -130.46 v 559.58 h -178.83"
         style="fill:#ffffff;fill-opacity:1;fill-rule:nonzero;stroke:none"
         id="path382" />
      <path
         d="m 2962.17,3258.27 v 76.76 h 488.14 v -76.76 h -178.85 v -559.58 h -130.44 v 559.58 h -178.85"
         style="fill:#ffffff;fill-opacity:1;fill-rule:nonzero;stroke:none"
         id="path384" />
      <path
         d="m 3659.76,3335.03 v -559.57 h 296.42 v -76.77 h -426.89 v 580.43 l -26.62,55.91 h 157.09"
         style="fill:#ffffff;fill-opacity:1;fill-rule:nonzero;stroke:none"
         id="path386" />
      <path
         d="m 4033.84,2698.69 v 580.43 l -26.62,55.91 h 453.51 v -76.76 h -296.42 v -208.12 h 254.26 v -76.77 h -254.26 v -197.92 h 296.42 v -76.77 h -426.89"
         style="fill:#ffffff;fill-opacity:1;fill-rule:nonzero;stroke:none"
         id="path388" />
    </g>
  </g>
</svg>
